<svg width="100" height="108" viewBox="0 0 100 108" fill="none" xmlns="http://www.w3.org/2000/svg">
<path d="M99.6689 25.4614C99.6689 25.0511 99.5777 24.6408 99.3953 24.2533C99.0306 23.4783 98.324 22.954 97.549 22.7944L51.1167 0.273533C50.3645 -0.0911777 49.4755 -0.0911777 48.7233 0.273533L1.83518 22.9996C0.923401 23.4327 0.330745 24.3444 0.285156 25.3702V25.393C0.285156 25.4158 0.285156 25.4386 0.285156 25.4842V82.5158C0.285156 83.5644 0.877812 84.5217 1.83518 84.9776L48.7233 107.704C48.7461 107.704 48.7461 107.704 48.7689 107.726C48.8373 107.749 48.9057 107.772 48.9741 107.818C48.9969 107.818 49.0196 107.84 49.0652 107.84C49.1336 107.863 49.202 107.886 49.2704 107.909C49.2932 107.909 49.316 107.932 49.3388 107.932C49.4072 107.954 49.4983 107.954 49.5667 107.977C49.5895 107.977 49.6123 107.977 49.6351 107.977C49.7263 107.977 49.8402 108 49.9314 108C50.0226 108 50.1366 108 50.2277 107.977C50.2505 107.977 50.2733 107.977 50.2961 107.977C50.3645 107.977 50.4557 107.954 50.5241 107.932C50.5469 107.932 50.5697 107.909 50.5925 107.909C50.6608 107.886 50.7292 107.863 50.7976 107.84C50.8204 107.84 50.8432 107.818 50.8888 107.818C50.9572 107.795 51.0256 107.772 51.0939 107.726C51.1167 107.726 51.1167 107.726 51.1395 107.704L98.1644 84.9092C99.099 84.4534 99.7145 83.496 99.7145 82.4474V25.5298C99.6689 25.507 99.6689 25.4842 99.6689 25.4614ZM49.9086 5.76699L90.5739 25.4842L75.598 32.7556L34.9327 13.0384L49.9086 5.76699ZM49.9086 45.2014L9.24337 25.4842L28.6642 16.0701L69.3295 35.7873L49.9086 45.2014ZM5.75582 29.8835L47.1733 49.9654V100.865L5.75582 80.7835V29.8835ZM52.644 100.865V49.9654L72.0876 40.5285V53.8404C72.0876 55.3449 73.3185 56.5758 74.8229 56.5758C76.3274 56.5758 77.5583 55.3449 77.5583 53.8404V37.8615L94.1982 29.7923V80.6923L52.644 100.865Z" fill="white"/>
</svg>
