<svg width="108" height="98" viewBox="0 0 108 98" fill="none" xmlns="http://www.w3.org/2000/svg">
<path d="M107.98 32.8C107.802 29.7202 104.139 27.3136 96.813 25.4776C97.0596 24.9376 97.1982 24.376 97.2 23.7928V11.2H97.1694C96.525 0.709624 53.5374 0.400024 48.6 0.400024C43.6626 0.400024 0.675 0.709624 0.0306 11.2H0V11.434V23.7982C0.009 27.2182 4.4226 29.8948 10.989 31.8874C10.899 32.1862 10.845 32.4904 10.827 32.8H10.8V33.034V45.3766C3.726 47.1982 0.1926 49.5706 0.018 52.6H0V52.834V65.1982C0.0054 67.5796 2.1528 69.5992 5.6664 71.2822C5.5332 71.6476 5.4504 72.0202 5.427 72.4018H5.4V72.6358V85C5.4144 90.9868 18.8946 94.7038 33.8724 96.439C33.9822 96.4606 34.083 96.5056 34.2 96.5056C34.2342 96.5056 34.263 96.4876 34.2972 96.4858C37.1844 96.8116 40.1184 97.0654 43.0218 97.2472C43.083 97.2544 43.137 97.2832 43.2 97.2832C43.2342 97.2832 43.2612 97.2652 43.2936 97.2634C46.98 97.4866 50.607 97.6 54 97.6C57.393 97.6 61.02 97.4866 64.7064 97.2616C64.7388 97.2634 64.7676 97.2814 64.8 97.2814C64.863 97.2814 64.917 97.2508 64.9782 97.2454C67.8816 97.0636 70.8156 96.8116 73.7028 96.484C73.737 96.484 73.7658 96.502 73.8 96.502C73.917 96.502 74.0178 96.457 74.1276 96.4354C89.1054 94.7002 102.584 90.9814 102.6 84.9928V72.4H102.571C102.445 70.1932 100.564 68.3518 96.849 66.8128C97.0758 66.2926 97.2 65.7526 97.2 65.1928V53.428C103.662 51.4408 107.991 48.7822 108 45.3928V32.8H107.98ZM93.4056 65.7778L92.7918 66.316C91.8468 67.1494 90.2718 67.99 88.2 68.8V60.2176C90.3402 59.4724 92.1618 58.6462 93.6 57.7408V65.1892C93.6 65.3746 93.5316 65.5726 93.4056 65.7778ZM53.1468 74.1424C52.884 74.1496 52.6194 74.1532 52.3548 74.1586C51.7122 74.1712 51.0534 74.1748 50.4018 74.1802V65.1892C50.8968 65.1838 51.3918 65.1766 51.8868 65.1676C51.9822 65.1658 52.0776 65.164 52.173 65.1622C53.9856 65.128 55.7982 65.0722 57.6018 64.9894V73.9768C57.2166 73.9966 56.8296 74.0146 56.439 74.0308C55.3554 74.0794 54.261 74.1154 53.1468 74.1424ZM45.2862 74.1676C44.4618 74.1532 43.641 74.1334 42.8256 74.1082C42.7248 74.1046 42.624 74.101 42.5232 74.0974C41.5422 74.065 40.5684 74.0236 39.6018 73.9768V64.9912C41.4054 65.0758 43.218 65.1316 45.0306 65.164C45.126 65.1658 45.2214 65.1676 45.315 65.1694C45.81 65.1784 46.305 65.1856 46.8 65.191V74.1874C46.4508 74.1838 46.1016 74.1838 45.7542 74.1784C45.5958 74.1748 45.4428 74.1694 45.2862 74.1676ZM12.7746 70.0636C12.7152 70.0456 12.6594 70.0294 12.6 70.0132V61.3174C14.2812 61.771 16.0884 62.185 18 62.5612V71.347C16.3476 70.996 14.823 70.627 13.4352 70.249C13.2156 70.186 12.9888 70.1266 12.7746 70.0636ZM50.715 84.9694C51.21 84.9784 51.705 84.9856 52.2 84.991V93.9892C49.7124 93.9658 47.3112 93.8938 45 93.7804V84.793C46.8036 84.8776 48.6162 84.9334 50.4288 84.9658C50.5242 84.9658 50.6196 84.9676 50.715 84.9694ZM57.5712 84.964C59.3838 84.9298 61.1964 84.874 63 84.7912V93.7786C60.6888 93.892 58.2876 93.964 55.8 93.9874V84.9892C56.295 84.9838 56.79 84.9766 57.285 84.9676C57.3804 84.9676 57.4758 84.9658 57.5712 84.964ZM72 84.1504V93.0892C70.2702 93.271 68.4702 93.4312 66.6 93.5626V84.586C68.4252 84.4672 70.2288 84.3214 72 84.1504ZM75.6 83.7616C77.4558 83.5384 79.2576 83.2846 81 83.002V91.84C79.3044 92.1388 77.5026 92.4142 75.6 92.6644V83.7616ZM84.6 82.3594C86.5116 81.9832 88.3188 81.5692 90 81.1156V89.8114C88.3962 90.274 86.5908 90.7222 84.6 91.1452V82.3594ZM23.4 82.3594V91.1452C21.4092 90.7222 19.6038 90.274 18 89.8114V81.1156C19.6812 81.5692 21.4884 81.985 23.4 82.3594ZM27 83.0038C28.7424 83.2864 30.5442 83.5402 32.4 83.7634V92.6662C30.4974 92.416 28.6956 92.1406 27 91.8418V83.0038ZM36 84.1504C37.7712 84.3214 39.5748 84.4672 41.4 84.5878V93.5644C39.5298 93.433 37.7298 93.2728 36 93.091V84.1504ZM31.5342 73.3864C31.3506 73.3684 31.1688 73.3486 30.987 73.3306C30.8574 73.318 30.7296 73.3018 30.6 73.2892V64.3522C32.3712 64.5232 34.1748 64.669 36 64.7896V73.759C34.488 73.651 32.994 73.5286 31.5342 73.3864ZM27 63.9616V72.8644C25.0974 72.6142 23.2956 72.3388 21.6 72.04V63.202C23.3424 63.4846 25.1442 63.7402 27 63.9616ZM62.3988 73.6744C62.0028 73.705 61.6032 73.7356 61.2 73.7644V64.7878C63.0252 64.6672 64.8288 64.5232 66.6 64.3504V73.2892C65.4876 73.4062 64.35 73.516 63.1818 73.6114C62.9208 73.6348 62.6598 73.6546 62.3988 73.6744ZM70.2 72.8644V63.9616C72.0558 63.7384 73.8576 63.4846 75.6 63.202V72.04C73.9044 72.3388 72.1026 72.616 70.2 72.8644ZM79.2 62.5594C81.1116 62.1832 82.9188 61.7692 84.6 61.3156V70.0114C82.9962 70.474 81.1908 70.9222 79.2 71.3452V62.5594ZM54.585 54.337C53.2314 54.3028 51.9084 54.2506 50.6088 54.1876C50.5386 54.184 50.4684 54.1804 50.4 54.1786V45.1912C52.2036 45.2758 54.0162 45.3316 55.8288 45.364C55.9242 45.3658 56.0196 45.3676 56.1132 45.3694C56.6082 45.3784 57.1032 45.3856 57.5982 45.391V54.3784C56.7216 54.3694 55.8378 54.3658 54.9828 54.346C54.8514 54.3424 54.7164 54.3406 54.585 54.337ZM12.6 28.6132V19.9174C14.2812 20.371 16.0884 20.785 18 21.1612V29.947C17.7786 29.9002 17.55 29.8534 17.334 29.8066C16.3764 29.596 15.4422 29.3764 14.5494 29.1442C13.869 28.9696 13.2228 28.7914 12.6 28.6132ZM45.315 23.7694C45.81 23.7784 46.305 23.7856 46.8 23.791V32.7784C44.3772 32.755 41.9688 32.692 39.6 32.5732V23.593C41.4036 23.6776 43.2162 23.7334 45.0288 23.7658C45.1242 23.7658 45.2196 23.7676 45.315 23.7694ZM52.1712 23.764C53.9838 23.7298 55.7964 23.674 57.6 23.5912V32.5714C57.294 32.5858 57.0006 32.6074 56.6928 32.6218C56.6676 32.6236 56.6424 32.6236 56.6154 32.6254C55.4076 32.6794 54.1764 32.719 52.929 32.7478C52.7346 32.7532 52.5402 32.755 52.3458 32.7604C51.705 32.773 51.0498 32.7748 50.4 32.782V23.791C50.895 23.7856 51.39 23.7784 51.885 23.7694C51.9804 23.7676 52.0758 23.7658 52.1712 23.764ZM93.1878 24.6676L93.1374 24.6568L92.4822 25.1662C91.5318 25.906 90.072 26.6548 88.2 27.3784V18.8158C90.3402 18.0706 92.1618 17.2444 93.6 16.339V23.7874C93.6 24.061 93.456 24.3562 93.1878 24.6676ZM70.2 31.4536V22.5616C72.0558 22.3384 73.8576 22.0846 75.6 21.802V30.6256C73.8936 30.928 72.0972 31.2052 70.2 31.4536ZM79.2 29.9326V21.1612C81.1116 20.785 82.9188 20.371 84.6 19.9174V28.5934C82.9872 29.0632 81.171 29.5114 79.2 29.9326ZM66.6 22.9504V31.8784C64.8612 32.062 63.0612 32.2222 61.2 32.3554V23.3878C63.0252 23.2672 64.8288 23.1214 66.6 22.9504ZM30.6 31.882V22.9504C32.3712 23.1214 34.1748 23.2672 36 23.3878V32.3482C34.1676 32.2168 32.3604 32.0674 30.6 31.882ZM27 22.5616V31.4554C26.6436 31.4086 26.2728 31.3708 25.92 31.3222C25.6896 31.2898 25.47 31.2556 25.2432 31.2232C24.2028 31.0738 23.1858 30.9136 22.1886 30.7462C21.9888 30.712 21.7962 30.676 21.6 30.6418V21.8038C23.3424 22.0846 25.1442 22.3402 27 22.5616ZM46.3536 53.9302C46.1106 53.9122 45.8658 53.8942 45.6246 53.8762C44.4726 53.7862 43.3476 53.6872 42.2496 53.5774C42.0138 53.554 41.778 53.5288 41.544 53.5054C41.4954 53.5 41.4486 53.4928 41.4 53.4892V44.5504C43.1712 44.7214 44.9748 44.8672 46.8 44.9878V53.959C46.6542 53.9482 46.4994 53.941 46.3536 53.9302ZM34.461 52.5856C33.7482 52.4722 33.0786 52.3498 32.4 52.231V43.4038C34.1424 43.6864 35.9442 43.9402 37.8 44.1634V53.0662C36.6984 52.9204 35.6202 52.7692 34.5852 52.6072C34.5438 52.5982 34.5024 52.591 34.461 52.5856ZM28.8 42.7594V51.5308C26.811 51.1042 25.0074 50.6506 23.4 50.179V41.5156C25.0812 41.9692 26.8884 42.385 28.8 42.7594ZM19.8 40.4158V48.9676C16.9704 47.875 15.1452 46.759 14.5512 45.7654L14.4306 45.5638C14.4198 45.508 14.4018 45.4486 14.4 45.3928V37.939C15.8382 38.8444 17.6598 39.6706 19.8 40.4158ZM62.9712 45.364C64.7838 45.3298 66.5964 45.274 68.4 45.1912V54.1696C66.0348 54.2866 63.63 54.3514 61.2 54.3766V45.391C61.695 45.3856 62.19 45.3784 62.685 45.3694C62.7804 45.3676 62.8758 45.3658 62.9712 45.364ZM86.2326 52.2706C85.4424 52.4074 84.645 52.5424 83.826 52.6666C83.3562 52.7386 82.8756 52.807 82.3932 52.8754C81.9378 52.9402 81.4644 52.996 81.0018 53.0554V44.1616C82.8576 43.9384 84.6594 43.6846 86.4018 43.402V52.24C86.3442 52.2508 86.2884 52.2616 86.2326 52.2706ZM74.0448 53.8078C73.3734 53.8636 72.6804 53.8996 72 53.9482V44.9878C73.8252 44.8672 75.6288 44.7232 77.4 44.5504V53.4802C76.3542 53.59 75.3102 53.6998 74.2356 53.7898C74.1708 53.7952 74.1096 53.8024 74.0448 53.8078ZM94.6152 50.4328C93.7188 50.683 92.7702 50.917 91.8018 51.1456C91.3536 51.25 90.8964 51.3544 90.4284 51.4552C90.2898 51.4858 90.1422 51.5128 90.0018 51.5434V42.7612C91.9134 42.385 93.7206 41.971 95.4018 41.5174V50.2132C95.1426 50.2852 94.8816 50.359 94.6152 50.4328ZM104.38 32.917C104.215 34.1392 101.444 35.7646 96.4998 37.2928C90.1314 39.2602 80.1666 41.062 67.5378 41.62C66.8916 41.647 66.2472 41.674 65.5884 41.6956C65.0502 41.7136 64.5102 41.7298 63.9612 41.7442C62.4708 41.7766 60.9588 41.8 59.4 41.8C57.8412 41.8 56.3292 41.7766 54.8388 41.7424C54.2916 41.7298 53.7516 41.7118 53.2116 41.6938C52.551 41.674 51.9066 41.6452 51.2622 41.6182C38.6334 41.0602 28.6668 39.2584 22.3002 37.291C17.3952 35.7754 14.6304 34.1626 14.4252 32.9458C14.4342 32.9116 14.4342 32.8828 14.4558 32.8396C14.5782 32.8702 14.715 32.8954 14.8392 32.926C15.543 33.0934 16.2648 33.2554 16.9992 33.4102C20.5758 34.1806 24.5394 34.8124 28.7622 35.2948C28.7766 35.2948 28.7874 35.302 28.8 35.302C28.8036 35.302 28.8072 35.3002 28.809 35.3002C31.6854 35.6278 34.6698 35.8852 37.7334 36.067C37.7568 36.067 37.7766 36.0796 37.8 36.0796C37.8126 36.0796 37.8216 36.0724 37.8342 36.0724C40.0392 36.202 42.273 36.2974 44.5338 36.3478C45.918 36.382 47.277 36.4 48.6 36.4C49.545 36.4 50.5134 36.3892 51.4908 36.3712C64.5696 36.1696 76.6908 34.6144 85.1256 32.2042C85.5144 32.0944 85.8942 31.981 86.2686 31.8676C86.4972 31.7974 86.7312 31.729 86.9526 31.6588C87.6042 31.45 88.2288 31.2358 88.8318 31.0126C88.9362 30.973 89.0352 30.9334 89.1396 30.8938C89.649 30.7012 90.1386 30.5014 90.6066 30.298C90.7416 30.2386 90.8802 30.181 91.0116 30.1216C91.5102 29.8966 91.9926 29.6662 92.439 29.4268C92.6406 29.3206 92.8152 29.2108 93.0042 29.1028C93.2202 28.9786 93.4362 28.8526 93.636 28.7248C93.7494 28.6528 93.8844 28.5844 93.9924 28.5124C102.051 30.2602 104.175 32.1718 104.38 32.917ZM48.6 4.00002C78.2802 4.00002 93.2922 8.67282 93.573 11.3548C93.3552 12.5716 90.5922 14.179 85.6998 15.691C79.3314 17.6584 69.3666 19.4602 56.7378 20.0182C56.0916 20.0452 55.4472 20.0722 54.7884 20.0938C54.2502 20.1118 53.7102 20.128 53.1612 20.1424C51.6708 20.1766 50.1588 20.2 48.6 20.2C47.0412 20.2 45.5292 20.1766 44.0388 20.1424C43.4916 20.1298 42.9516 20.1118 42.4116 20.0938C41.751 20.074 41.1066 20.0452 40.4622 20.0182C27.8334 19.4602 17.8668 17.6584 11.5002 15.691C6.606 14.179 3.8448 12.5716 3.627 11.3548C3.9078 8.67282 18.9198 4.00002 48.6 4.00002ZM3.6 23.7928V16.339C5.0382 17.2444 6.8598 18.0706 9 18.8158V27.4342C5.499 26.122 3.6036 24.8062 3.6 23.7928ZM12.3192 48.703C12.3462 48.7318 12.3876 48.757 12.4146 48.7858C14.8788 51.2734 19.9818 53.2282 26.334 54.6862C26.4798 54.7204 26.6346 54.7528 26.7822 54.787C27.2484 54.8914 27.7218 54.994 28.2006 55.093C34.0344 56.335 40.9986 57.2332 48.5856 57.6778C48.591 57.6778 48.5946 57.6796 48.5982 57.6796C48.6018 57.6796 48.6036 57.6778 48.6054 57.6778C51.0426 57.82 53.5356 57.919 56.0808 57.9622C57.2076 57.9856 58.3164 58 59.4 58C60.642 58 61.9164 57.9856 63.2124 57.955C65.5668 57.9064 67.887 57.8092 70.1748 57.676C70.1838 57.676 70.191 57.6814 70.2 57.6814C70.2162 57.6814 70.2288 57.6724 70.245 57.6724C77.8518 57.2242 84.9888 56.317 91.0242 55.012C89.7174 55.696 87.9282 56.4034 85.6998 57.0928C78.9768 59.17 68.2398 61.0618 54.594 61.501C54.189 61.5136 53.7894 61.528 53.379 61.5388C52.938 61.5496 52.4898 61.5568 52.0416 61.5658C50.9094 61.5838 49.77 61.6 48.6 61.6C47.0412 61.6 45.5292 61.5766 44.0388 61.5424C43.4916 61.5298 42.9516 61.5118 42.4116 61.4938C41.751 61.474 41.1066 61.4452 40.4622 61.4182C27.8334 60.8602 17.8668 59.0584 11.5002 57.091C6.5502 55.561 3.78 53.9338 3.6198 52.7116C3.8196 52.0348 5.6394 50.341 12.3192 48.703ZM3.6 65.1928V57.739C5.0382 58.6444 6.8598 59.4706 9 60.2158V68.8L7.9722 68.4004L7.9506 68.422C5.1246 67.2502 3.6036 66.1 3.6 65.1928ZM9 84.9928V77.539C10.4382 78.4444 12.2598 79.2706 14.4 80.0158V88.6342C10.899 87.322 9.0036 86.0062 9 84.9928ZM93.6 88.6342V80.0176C95.7402 79.2724 97.5618 78.4462 99 77.5408V84.9892C98.9982 86.0026 97.101 87.3202 93.6 88.6342ZM98.9766 72.5386C98.7804 73.7572 96.0156 75.3736 91.0998 76.8928C84.7314 78.8602 74.7666 80.662 62.1378 81.22C61.4916 81.247 60.8472 81.274 60.1884 81.2956C59.6502 81.3136 59.1102 81.3298 58.5612 81.3442C57.0708 81.3766 55.5588 81.4 54 81.4C52.4412 81.4 50.9274 81.3766 49.4352 81.3424C48.8934 81.3298 48.3588 81.3118 47.8242 81.2938C47.16 81.2722 46.512 81.2452 45.8622 81.2182C33.2334 80.6602 23.2686 78.8584 16.9002 76.891C12.1392 75.4204 9.3888 73.858 9.0432 72.652C9.5796 72.8392 10.1358 73.021 10.7064 73.1992C10.764 73.2172 10.8216 73.2352 10.8792 73.2514C11.3652 73.4008 11.862 73.5448 12.3714 73.6852C12.564 73.7392 12.7584 73.7932 12.9546 73.8454C13.2426 73.9228 13.5378 73.9966 13.833 74.0722C20.3886 75.7516 28.7568 76.9414 37.791 77.476C37.7946 77.476 37.7964 77.4778 37.8 77.4778C37.8018 77.4778 37.8036 77.476 37.8054 77.476C40.5954 77.6416 43.4448 77.7442 46.3248 77.7784C47.0916 77.7928 47.853 77.8 48.6 77.8C49.5918 77.8 50.607 77.7874 51.6348 77.7694C54.261 77.7262 56.853 77.629 59.3874 77.4778C59.3928 77.4778 59.3964 77.4814 59.4018 77.4814C59.4108 77.4814 59.4162 77.476 59.4252 77.476C62.5122 77.2906 65.5002 77.026 68.3712 76.6966C68.382 76.6966 68.391 76.702 68.4018 76.702C68.4414 76.702 68.4738 76.6822 68.5134 76.6786C71.7102 76.3096 74.7414 75.856 77.5548 75.3286C78.1344 75.2224 78.705 75.1126 79.2702 74.9992C79.3962 74.974 79.5222 74.9488 79.6482 74.9218C84.9636 73.831 89.5644 72.418 92.7216 70.6666C92.8944 70.573 93.0564 70.4758 93.2202 70.3804C93.42 70.2616 93.6108 70.141 93.7962 70.0186C93.969 69.907 94.1688 69.799 94.3272 69.6856C97.8804 70.9528 98.8596 72.0868 98.9766 72.5386ZM99 49.0342V40.4176C101.14 39.6724 102.962 38.8462 104.4 37.9408V45.3892C104.398 46.4026 102.501 47.7202 99 49.0342Z" fill="white"/>
</svg>
