<svg width="108" height="102" viewBox="0 0 108 102" fill="none" xmlns="http://www.w3.org/2000/svg">
<path d="M62.7164 24.9595V19.9785H45.2197V24.9595H33.5605V82.1988H74.376V24.9595H62.7164ZM62.3641 69.4788H45.5723V63.1193H62.3641V69.4788ZM62.3641 56.7588H45.5723V50.3993H62.3641V56.7588ZM62.3641 44.0391H45.5723V37.6795H62.3641V44.0391Z" fill="white"/>
<path d="M107.999 27.6719L91.7407 22.9158L86.985 39.1743L93.0887 40.9596L94.8935 34.7894C96.9528 39.9467 98.0246 45.4798 98.0246 51.0887C98.0246 75.2868 78.3379 94.9737 54.1396 94.9737C46.1619 94.9737 38.3522 92.8127 31.5548 88.7244L28.2773 94.1741C36.0642 98.8577 45.0072 101.333 54.1398 101.333C67.5606 101.333 80.1781 96.1068 89.6679 86.6168C99.1578 77.1267 104.384 64.5093 104.384 51.0885C104.384 44.5712 103.12 38.1419 100.691 32.1601L106.213 33.7754L107.999 27.6719Z" fill="white"/>
<path d="M54.2023 0.667567C54.1214 0.667143 54.0423 0.666931 53.9613 0.666931C40.6312 0.666931 28.0826 5.82962 18.606 15.218C9.07192 24.6637 3.7867 37.2567 3.72395 50.677C3.69363 57.1926 4.92908 63.6281 7.33236 69.6237L1.81396 67.9814L0 74.0768L16.236 78.9084L21.0675 62.6725L14.9721 60.8585L13.1397 67.0158C11.1036 61.8483 10.057 56.312 10.0833 50.7069C10.138 38.9848 14.7542 27.9857 23.0816 19.7357C31.3592 11.535 42.3182 7.02649 53.9619 7.02649C54.0321 7.02649 54.1025 7.02671 54.1727 7.02713C62.1505 7.06444 69.9501 9.26188 76.7279 13.3818L80.0313 7.94757C72.2665 3.2275 63.3351 0.710176 54.2023 0.667567Z" fill="white"/>
</svg>
