<svg width="100" height="83" viewBox="0 0 100 83" fill="none" xmlns="http://www.w3.org/2000/svg">
<path fill-rule="evenodd" clip-rule="evenodd" d="M80.3571 42.8298C91.2054 42.8298 100 51.617 100 62.456C100 73.2951 91.2054 82.0823 80.3571 82.0823C69.5089 82.0823 60.7143 73.2951 60.7143 62.456C60.7143 51.617 69.5089 42.8298 80.3571 42.8298ZM19.6429 42.8298C30.4911 42.8298 39.2857 51.617 39.2857 62.456C39.2857 73.2951 30.4911 82.0823 19.6429 82.0823C8.79464 82.0823 0 73.2951 0 62.456C0 51.617 8.79464 42.8298 19.6429 42.8298ZM80.3571 47.7364C88.4821 47.7364 95.0893 54.3379 95.0893 62.456C95.0893 70.5742 88.4821 77.1757 80.3571 77.1757C72.2321 77.1757 65.625 70.5742 65.625 62.456C65.625 54.3379 72.2321 47.7364 80.3571 47.7364ZM19.6429 47.7364C27.7679 47.7364 34.375 54.3379 34.375 62.456C34.375 70.5742 27.7679 77.1757 19.6429 77.1757C11.5179 77.1757 4.91071 70.5742 4.91071 62.456C4.91071 54.3379 11.5179 47.7364 19.6429 47.7364ZM23.1101 36.5851C22.8869 36.3026 22.6786 36.0052 22.5 35.693C20.372 32.0056 21.6369 27.3072 25.3125 25.181L49.1667 11.4278C52.8423 9.30164 57.5595 10.5654 59.6875 14.2379C60.7887 16.1411 60.9821 18.3267 60.3869 20.2894L67.5446 32.6747L89.9405 35.8268C89.9405 35.8268 71.6815 38.399 65.5804 39.2614C65.4315 39.2763 65.2827 39.2763 65.119 39.2614C64.8065 39.2614 64.4643 39.2168 64.1369 39.1276C63.2143 38.8897 62.5 38.3396 62.1726 37.7299C62.0982 37.6259 62.0238 37.5218 61.9643 37.4028L55.2083 25.7014L37.5149 35.9011L56.503 43.5583C57.6042 44.0044 58.3631 44.9262 58.631 45.9968C58.6607 46.086 58.7054 46.1752 58.7351 46.2644C59.1667 47.5728 58.9583 49.015 58.1548 50.145C52.5 58.1591 41.756 73.3992 41.756 73.3992L50.372 48.7771L26.9048 39.3209C25.3571 38.9045 24.0179 37.9232 23.1101 36.5851ZM48.5417 10.6101C48.9286 10.3722 49.2113 10.0153 49.3304 9.58414C49.4345 9.13809 49.375 8.67717 49.1518 8.29059C49.122 8.23112 49.0774 8.17164 49.0476 8.0973C48.3482 6.90783 47.2024 6.0306 45.8631 5.67376C44.5238 5.31692 43.0952 5.49534 41.9048 6.19415C37.3512 8.81098 30.625 12.6916 27.6786 14.3866C27.2917 14.6245 27.0089 14.9814 26.8899 15.4125C26.7708 15.8586 26.8304 16.3195 27.0536 16.7061C27.6339 17.6874 28.378 18.9809 28.9435 19.9623C29.1667 20.3488 29.5387 20.6313 29.9702 20.7503C30.4018 20.8544 30.8631 20.7949 31.25 20.5719C34.9851 18.4159 44.8065 12.7511 48.5417 10.6101ZM71.4286 7.01191C71.4286 7.05651 71.4286 7.10112 71.4286 7.14572C71.4286 11.0858 68.2292 14.2825 64.2857 14.2825C60.3423 14.2825 57.1429 11.0858 57.1429 7.14572C57.1429 3.20561 60.3423 0.00891113 64.2857 0.00891113C65.5506 0.00891113 66.756 0.336014 67.7827 0.930748C67.8125 0.930748 67.8423 0.945617 67.872 0.975354C71.3839 2.92311 79.003 7.14572 79.003 7.14572L71.4286 7.01191Z" fill="#000"/>
</svg>
