<svg width="102" height="102" viewBox="0 0 102 102" fill="none" xmlns="http://www.w3.org/2000/svg">
<path d="M84.7632 60.4234V41.8506C84.7632 35.3074 79.4411 29.9854 72.8979 29.9854H68.9429V37.8955H72.8979C75.0788 37.8955 76.853 39.6697 76.853 41.8506V44.8169H73.0957C66.775 44.8169 60.9919 48.0106 57.6239 53.358L46.6968 70.7134L31.8195 47.7832H37.8955V39.873H21.4819V46.3835L27.5375 55.7156L25.4834 60.5087C24.0496 60.1997 22.5813 60.0439 21.0864 60.0439C9.63647 60.0439 0.322266 69.3582 0.322266 80.8081C0.322266 92.2581 9.63647 101.572 21.0864 101.572C31.3752 101.572 39.9386 94.0502 41.5694 84.2157C46.0807 83.0909 50.0234 80.2766 52.5763 76.2221L64.3179 57.5733C66.2287 54.5384 69.5102 52.7271 73.0957 52.7271H76.853V60.4234C67.2892 62.2755 60.0439 70.7109 60.0439 80.8081C60.0439 92.2581 69.3582 101.572 80.8081 101.572C92.2581 101.572 101.572 92.2581 101.572 80.8081C101.572 70.7109 94.3271 62.2755 84.7632 60.4234ZM40.8093 76.1726C39.6469 76.6145 38.3961 76.853 37.1045 76.853H27.0845L32.7199 63.7036L40.8093 76.1726ZM21.0864 93.6621C13.9988 93.6621 8.23242 87.8957 8.23242 80.8081C8.23242 73.7205 13.9988 67.9541 21.0864 67.9541C21.4832 67.9541 21.8774 67.9751 22.268 68.0103L17.4521 79.2477C17.2463 79.7266 17.1313 80.2532 17.1313 80.8081C17.1313 82.9927 18.9019 84.7632 21.0864 84.7632H33.3157C31.6428 89.9209 26.7941 93.6621 21.0864 93.6621ZM80.8081 93.6621C73.7205 93.6621 67.9541 87.8957 67.9541 80.8081C67.9541 75.1004 71.6954 70.2518 76.853 68.5789V80.8081C76.853 82.9927 78.6235 84.7632 80.8081 84.7632C82.9927 84.7632 84.7632 82.9927 84.7632 80.8081V68.5789C89.9209 70.2518 93.6621 75.1004 93.6621 80.8081C93.6621 87.8957 87.8957 93.6621 80.8081 93.6621ZM53.0533 25.437H37.3022L47.5854 0.322266H56.2279L49.0983 17.5269H65.3042L54.7046 39.873L47.7832 43.8281V36.3135L53.0533 25.437Z" fill="white"/>
</svg>
