<svg width="67" height="101" viewBox="0 0 67 101" fill="none" xmlns="http://www.w3.org/2000/svg">
<path d="M61.6902 10.7423C60.8143 10.3934 59.8945 10.3062 58.9638 10.3062H44.784V5.23607C44.784 5.20336 44.8059 5.17065 44.8059 5.13794C44.6964 2.761 42.9226 0.907426 40.5246 0.700261C40.0538 0.656647 39.5939 0.711164 39.134 0.711164H26.3448C25.3156 0.711164 24.2754 0.831102 23.3884 1.40898C21.9431 2.35758 21.2423 3.86225 21.2423 5.54137V10.3062H7.36915C6.81072 10.3062 6.27419 10.3062 5.70481 10.3934C3.13165 10.7968 0.919827 12.8139 0.26285 15.3108C-0.0108902 16.3357 6.00906e-05 17.3607 6.00906e-05 18.3965V92.9975C6.00906e-05 93.2265 0.0219597 93.4664 0.0329093 93.6953C0.197154 96.4539 1.96004 98.8417 4.5551 99.8231C5.85811 100.314 7.24871 100.259 8.61741 100.259H57.2228C58.3396 100.259 59.4784 100.292 60.5843 100.096C63.1575 99.6268 65.3145 97.5006 65.8839 94.9601C66.0153 94.3495 66.0372 93.7281 66.0372 93.1066V17.0663C66.0372 17.0445 66.0591 17.0117 66.0591 16.9899C65.9825 14.1878 64.2962 11.789 61.6902 10.7423ZM40.9516 87.7203H25.1842C23.3447 87.7203 21.9759 86.2156 21.8993 84.4493C21.8227 82.6829 23.4651 81.1782 25.1842 81.1782H40.9516C42.7912 81.1782 44.1599 82.6829 44.2365 84.4493C44.3132 86.2156 42.6707 87.7203 40.9516 87.7203ZM40.9516 36.3653H36.2433V40.8357C36.2433 42.6674 34.7323 44.0304 32.9584 44.1067C31.1846 44.183 29.6735 42.5475 29.6735 40.8357V36.3653H25.1842C23.3447 36.3653 21.9759 34.8606 21.8993 33.0943C21.8227 31.3279 23.4651 29.8232 25.1842 29.8232H29.6735V25.1348C29.6735 23.303 31.1846 21.9401 32.9584 21.8638C34.7323 21.7874 36.2433 23.4229 36.2433 25.1348V29.8232H40.9516C42.7912 29.8232 44.1599 31.3279 44.2365 33.0943C44.3132 34.8606 42.6707 36.3653 40.9516 36.3653Z" fill="#000"/>
</svg>
