<svg width="108" height="90" viewBox="0 0 108 90" fill="none" xmlns="http://www.w3.org/2000/svg">
<path d="M105.069 45.4632C104.745 45.3998 98.9341 44.2754 91.1362 43.7005C91.174 42.984 91.194 42.2628 91.194 41.5368C91.194 19.1053 72.9445 0.855835 50.5131 0.855835C28.0814 0.855835 9.8316 19.1053 9.8316 41.5368C9.8316 46.2662 10.6458 50.8081 12.136 55.0339C6.93469 55.4717 3.15429 56.203 2.93075 56.247L0 56.8217L1.27647 59.5217C1.66999 60.3543 11.0508 79.9791 22.8007 85.9158C27.041 88.0579 31.0068 89.1441 34.5884 89.1447C34.5892 89.1447 34.5895 89.1447 34.59 89.1447C39.9243 89.1447 44.2924 86.7351 47.0409 82.3216C50.6468 86.6301 55.7218 88.9515 61.7277 88.9515C66.512 88.9515 71.8311 87.4901 77.5367 84.6076C93.4211 76.5822 106.188 49.8716 106.724 48.7382L108 46.0381L105.069 45.4632ZM84.0294 28.3087C82.4961 27.0533 80.7302 25.8783 78.7421 24.8017C76.2816 23.469 73.5594 22.334 70.646 21.4044C69.7164 18.4904 68.5814 15.7683 67.2482 13.3073C66.1715 11.3194 64.9968 9.5535 63.7411 8.02019C72.9863 11.6823 80.3678 19.0638 84.0294 28.3087ZM86.2453 39.2122H73.5741C73.4406 34.9381 72.9376 30.7873 72.0965 26.8793C79.6471 29.8298 84.9632 34.2472 86.2453 39.2122ZM52.8377 5.80427C57.8029 7.08661 62.2204 12.403 65.1711 19.9537C61.2628 19.1125 57.1123 18.6098 52.8377 18.476V5.80427ZM52.8377 23.1269C57.8362 23.299 62.5944 24.0207 66.877 25.1728C68.0291 29.4557 68.7509 34.2136 68.9232 39.2119H52.8377V23.1269ZM52.8377 43.8614H68.9232C68.9161 44.0668 68.9083 44.2722 68.8995 44.4768C65.0224 45.1962 61.6718 46.2625 58.8782 47.6738C56.6477 48.8005 54.6337 50.0032 52.8377 51.2778V43.8614ZM48.1882 5.80427V18.476C43.9138 18.6098 39.7631 19.1125 35.8548 19.9537C38.8055 12.403 43.2232 7.08661 48.1882 5.80427ZM48.1882 23.1269V39.2122H32.1026C32.2747 34.2139 32.9965 29.4557 34.1488 25.1728C38.4315 24.0207 43.1899 23.2992 48.1882 23.1269ZM37.2845 8.02072C36.0288 9.55403 34.8541 11.3199 33.7774 13.3078C32.4445 15.7686 31.3095 18.491 30.3799 21.4047C27.4659 22.3345 24.7441 23.4692 22.283 24.8022C20.2952 25.8788 18.5293 27.0535 16.996 28.309C20.6581 19.0635 28.0393 11.6823 37.2845 8.02072ZM28.9294 26.879C28.0883 30.7873 27.5853 34.9378 27.4518 39.2122H14.7803C16.0624 34.2472 21.3788 29.8298 28.9294 26.879ZM27.4518 43.8614C27.5765 47.8483 28.0214 51.7278 28.7632 55.4035C27.9668 55.2705 27.1425 55.156 26.2899 55.0614C20.1513 52.1674 15.907 48.2258 14.7803 43.8614H27.4518ZM41.9409 81.391C40.3991 83.0924 38.0726 84.4949 34.59 84.4949H34.589C31.7422 84.4946 28.4813 83.5765 24.8973 81.7658C16.9861 77.7686 9.84918 65.7789 6.90591 60.3085C9.83746 59.8891 14.5299 59.3589 19.5105 59.3589C26.141 59.3589 31.3023 60.268 34.8514 62.0611C38.0494 63.6765 40.4966 65.4847 42.1754 67.4332C41.8415 70.8224 42.4879 74.2922 44.1067 77.6937L20.6034 66.689L41.9409 81.391ZM38.8879 58.9619C38.2665 58.6025 37.6215 58.2516 36.9477 57.9111C35.9928 57.4286 34.9476 57.0031 33.8232 56.6291C32.8609 52.6835 32.2582 48.3705 32.1026 43.8611H48.1882V55.2332C46.8067 56.665 45.6542 58.168 44.732 59.7386C42.7287 59.5652 40.7753 59.3038 38.8879 58.9619ZM75.4402 80.4574C70.3907 83.0085 65.777 84.3017 61.7277 84.3017C56.3253 84.3017 52.827 81.9944 50.5853 79.3064L82.8646 58.63L48.5167 76.1407C48.5098 76.1268 48.502 76.1127 48.4951 76.0988C43.8989 66.9999 48.4477 58.152 60.9748 51.8237C65.9754 49.2974 73.2013 48.0164 82.4519 48.0164C90.0713 48.0164 97.2242 48.9167 101.121 49.5119C97.4648 56.4679 87.0995 74.5669 75.4402 80.4574Z" fill="white"/>
</svg>
