<?xml version="1.0" encoding="utf-8"?>
<!-- Generator: Adobe Illustrator 22.0.0, SVG Export Plug-In . SVG Version: 6.00 Build 0)  -->
<svg version="1.1" id="Layer_1" xmlns="http://www.w3.org/2000/svg" xmlns:xlink="http://www.w3.org/1999/xlink" x="0px" y="0px"
	 viewBox="0 0 512 512" style="enable-background:new 0 0 512 512;" xml:space="preserve">
<path d="M314.6,268c-2-14.1-7.5-27-15.7-37.9l-16.1,16.1l-16.9-16.9l16.1-16.1c-10.9-8.2-23.8-13.6-37.9-15.7v22.7h-23.9v-22.7
	c-14.1,2-27,7.5-37.9,15.7l16.1,16.1l-16.9,16.9L165.3,230c-8.2,10.9-13.6,23.8-15.7,37.9h22.7v23.9h-22.7c2,14.1,7.5,27,15.7,37.9
	l16.1-16.1l16.9,16.9l-16.1,16.1c10.9,8.2,23.8,13.6,37.9,15.7v-22.7H244v22.7c14.1-2,27-7.5,37.9-15.7l-16.1-16.1l16.9-16.9
	l16.1,16.1c8.2-10.9,13.6-23.8,15.7-37.9h-22.7V268H314.6z M232.1,315.8c-19.8,0-35.9-16.1-35.9-35.9s16.1-35.9,35.9-35.9
	s35.9,16.1,35.9,35.9S251.9,315.8,232.1,315.8z"/>
<path d="M383.1,244H460c-6-102.5-89.5-186-192-192v76.9C325,142.4,369.6,187,383.1,244z"/>
<path d="M232.1,268c-6.6,0-12,5.4-12,12s5.4,12,12,12s12-5.4,12-12S238.7,268,232.1,268z"/>
<path d="M363.3,268l-1.7-10c-9.3-55-52.5-98.3-107.6-107.6l-10-1.7v-47.3c-4-0.3-8-0.8-12-0.8C133.2,100.6,52,181,52,279.9
	S133.2,460,232.1,460s179.3-81.2,179.3-180.1c0-4-0.6-8-0.8-12H363.3z M232.1,387.5c-59.3,0-107.6-48.3-107.6-107.6
	s48.3-107.6,107.6-107.6s107.6,48.3,107.6,107.6S291.4,387.5,232.1,387.5z"/>
</svg>
