<svg width="45" height="29" viewBox="0 0 45 29" fill="none" xmlns="http://www.w3.org/2000/svg">
<path d="M35.219 9.6875C34.1797 9.68961 33.1481 9.86599 32.1672 10.2093L29.1276 3.21875H33.4221C33.7081 3.21875 33.9823 3.33234 34.1845 3.53453C34.3867 3.73671 34.5003 4.01094 34.5003 4.29688C34.5003 4.58281 34.3867 4.85704 34.1845 5.05922C33.9823 5.26141 33.7081 5.375 33.4221 5.375H31.6253V6.8125H33.4221C34.0893 6.8125 34.7292 6.54746 35.2009 6.07569C35.6727 5.60392 35.9378 4.96406 35.9378 4.29688C35.9378 3.62969 35.6727 2.98983 35.2009 2.51806C34.7292 2.04629 34.0893 1.78125 33.4221 1.78125H28.0315C27.9121 1.78119 27.7946 1.81087 27.6896 1.8676C27.5846 1.92432 27.4953 2.00632 27.4299 2.10618C27.3645 2.20604 27.325 2.32061 27.3149 2.43957C27.3049 2.55852 27.3247 2.67809 27.3724 2.7875L28.8099 6.09375H16.7924L16.0938 3.89869L14.7231 4.33569L15.342 6.27631C15.2754 6.3321 15.2197 6.39957 15.1774 6.47541L13.0657 10.4645C11.3172 9.70276 9.37742 9.49437 7.50701 9.86729C5.63659 10.2402 3.92509 11.1766 2.60239 12.5506C1.27969 13.9247 0.409147 15.6706 0.107694 17.5538C-0.193758 19.4371 0.088317 21.3675 0.916031 23.0858C1.74375 24.804 3.07745 26.2278 4.73801 27.166C6.39857 28.1041 8.30644 28.5116 10.2054 28.3337C12.1043 28.1559 13.9033 27.4011 15.3608 26.171C16.8182 24.9408 17.8643 23.2941 18.3586 21.452L18.7179 21.5196C18.786 21.9597 18.9892 22.3678 19.2994 22.6874C19.6096 23.007 20.0115 23.2223 20.4494 23.3035L21.24 25.6667C21.2868 25.8072 21.3757 25.9297 21.4947 26.0177C21.6137 26.1057 21.7569 26.1548 21.9049 26.1584L24.4205 26.218L24.4536 24.7805L22.4411 24.7331L21.884 23.0627C22.1473 22.9187 22.3773 22.7209 22.5592 22.4822C22.741 22.2435 22.8707 21.9692 22.9397 21.6771C23.0087 21.3851 23.0155 21.0818 22.9597 20.7869C22.9039 20.4921 22.7867 20.2123 22.6157 19.9656L30.2467 9.4L30.8476 10.7829C28.8359 11.8541 27.2857 13.6243 26.4892 15.7596C25.6927 17.895 25.705 20.248 26.5236 22.3749C27.3423 24.5019 28.9108 26.2558 30.9335 27.3061C32.9561 28.3563 35.2931 28.6303 37.5038 28.0764C39.7146 27.5224 41.6462 26.1788 42.9347 24.2989C44.2231 22.419 44.7792 20.1326 44.4982 17.8709C44.2172 15.6093 43.1184 13.5285 41.4091 12.0211C39.6998 10.5136 37.4981 9.68359 35.219 9.6875ZM9.344 26.2188C8.28227 26.2202 7.23341 25.9864 6.27281 25.5342C5.3122 25.0819 4.46372 24.4225 3.78835 23.6032C3.11298 22.784 2.6275 21.8253 2.36679 20.7961C2.10609 19.7669 2.07665 18.6927 2.28059 17.6507C2.48452 16.6087 2.91676 15.6249 3.54625 14.7699C4.17573 13.9149 4.98682 13.21 5.92121 12.7058C6.8556 12.2016 7.89008 11.9107 8.9503 11.854C10.0105 11.7973 11.0701 11.9762 12.053 12.3778L8.70863 18.6949C8.65602 18.7944 8.62755 18.905 8.62551 19.0176C8.62347 19.1302 8.64792 19.2417 8.69687 19.3431C8.74583 19.4445 8.81793 19.533 8.90737 19.6014C8.9968 19.6699 9.10107 19.7163 9.21175 19.7371L16.2375 21.0545C15.7991 22.5436 14.891 23.8511 13.6486 24.7818C12.4063 25.7125 10.8963 26.2165 9.344 26.2188ZM16.5006 19.6422L10.4365 18.5051L13.3237 13.0513C14.3098 13.7065 15.1186 14.5953 15.6782 15.6386C16.2379 16.6819 16.531 17.8473 16.5315 19.0312C16.5315 19.2375 16.5178 19.4402 16.5006 19.6422ZM18.9875 20.1079L18.6281 20.0411C18.821 18.304 18.5201 16.5477 17.7598 14.974C16.9995 13.4003 15.8107 12.0729 14.33 11.1444L15.9278 8.12566L19.5445 19.4769C19.3189 19.6489 19.1296 19.8638 18.9875 20.1094V20.1079ZM21.4456 19.1268C21.273 19.075 21.0945 19.0453 20.9144 19.0384L17.2503 7.53125H29.4352L29.579 7.86403L21.4456 19.1268ZM35.219 26.2188C33.6286 26.2199 32.0828 25.6932 30.8239 24.7212C29.5651 23.7492 28.6644 22.3869 28.2631 20.848C27.8618 19.309 27.9826 17.6804 28.6065 16.2175C29.2305 14.7546 30.3223 13.5401 31.7108 12.7645L34.5599 19.3188L35.8781 18.7437L33.0275 12.1866C34.0159 11.8699 35.061 11.771 36.0912 11.8966C37.1214 12.0223 38.1122 12.3696 38.9954 12.9146C39.8786 13.4596 40.6333 14.1894 41.2076 15.0538C41.7819 15.9182 42.1622 16.8968 42.3223 17.9222C42.4825 18.9476 42.4186 19.9955 42.1353 20.9939C41.8519 21.9922 41.3556 22.9174 40.6807 23.7058C40.0057 24.4941 39.168 25.1269 38.2252 25.5607C37.2824 25.9945 36.2568 26.219 35.219 26.2188Z" fill="#000"/>
<path d="M12.5165 0.343758C12.3155 0.343715 12.119 0.403297 11.9518 0.514968C11.7846 0.626639 11.6543 0.785381 11.5774 0.971114C11.5004 1.15685 11.4803 1.36123 11.5195 1.5584C11.5588 1.75557 11.6556 1.93668 11.7978 2.07882L12.2075 2.48851C12.5349 2.81593 12.947 3.04571 13.3977 3.15209C13.8484 3.25847 14.3197 3.23726 14.759 3.09082L18.1163 1.97173C18.2831 1.91706 18.4284 1.81125 18.5316 1.66933C18.6348 1.52741 18.6907 1.35658 18.6913 1.1811C18.6916 1.07094 18.6701 0.961807 18.628 0.859993C18.5859 0.75818 18.5241 0.665694 18.4462 0.587864C18.3682 0.510034 18.2756 0.448397 18.1737 0.406502C18.0719 0.364607 17.9627 0.343283 17.8525 0.343758H12.5165Z" fill="#000"/>
</svg>
