<svg width="73" height="108" viewBox="0 0 73 108" fill="none" xmlns="http://www.w3.org/2000/svg">
<path d="M49.0184 57.7924V16.3885C49.0184 13.3461 46.6273 10.965 43.5719 10.965H39.1882V5.80608C39.1882 2.76362 36.797 0.382568 33.7417 0.382568H15.2767C12.2214 0.382568 9.83025 2.76362 9.83025 5.80608V10.965H5.44649C2.39114 10.965 0 13.3461 0 16.3885V89.0106C0 92.0531 2.39114 94.4341 5.44649 94.4341H24.7085C28.9594 102.371 37.3284 107.927 47.0258 107.927C60.9741 107.927 72.2656 96.6829 72.2656 82.7934C72.2656 69.5654 62.0368 58.7183 49.0184 57.7924ZM29.3579 94.4341C28.5609 93.2436 27.8967 91.9208 27.2325 90.4657C26.4354 88.6138 26.0369 86.6296 25.904 84.5131C25.904 83.984 25.7712 83.4548 25.7712 82.7934C25.7712 76.5762 28.428 71.1527 32.6789 67.1843C36 64.1419 40.2509 62.1576 45.0332 61.7608C45.6974 61.7608 46.3616 61.6285 47.0258 61.6285C47.69 61.6285 48.3542 61.6285 49.0184 61.7608C59.7785 62.8191 68.2804 71.8141 68.2804 82.7934C68.2804 94.4341 58.7158 103.958 47.0258 103.958C39.7195 103.826 33.2103 100.122 29.3579 94.4341ZM13.8155 5.80608C13.8155 5.01239 14.4797 4.35099 15.2767 4.35099H33.7417C34.5387 4.35099 35.2029 5.01239 35.2029 5.80608V10.965H13.8155V5.80608ZM5.44649 90.4657C4.64944 90.4657 3.98524 89.8043 3.98524 89.0106V16.3885C3.98524 15.5948 4.64944 14.9334 5.44649 14.9334H11.8229H13.8155H35.2029H37.1955H43.5719C44.369 14.9334 45.0332 15.5948 45.0332 16.3885V57.7924C43.3062 57.9247 41.7121 58.1892 40.118 58.7183V45.2257C40.118 44.432 39.5867 43.9029 38.7896 43.9029H10.6273C9.83025 43.9029 9.29889 44.432 9.29889 45.2257V59.7766C9.29889 60.5703 9.83025 61.0994 10.6273 61.0994H34.4059C31.7491 62.6868 29.3579 64.8033 27.3653 67.1843H10.6273C9.83025 67.1843 9.29889 67.7134 9.29889 68.5071V83.058C9.29889 83.8517 9.83025 84.3808 10.6273 84.3808H21.9188C22.0516 86.4973 22.4502 88.4815 23.1144 90.3334H5.44649V90.4657Z" fill="white"/>
</svg>
