<svg width="100" height="53" viewBox="0 0 100 53" fill="none" xmlns="http://www.w3.org/2000/svg">
<path fill-rule="evenodd" clip-rule="evenodd" d="M73.3342 0.878052C71.4933 0.878052 70.001 2.35934 70.001 4.18668V24.0381C70.001 25.8654 71.4933 27.3467 73.3342 27.3467H99.9996V0.878052H73.3342Z" fill="#000"/>
<path fill-rule="evenodd" clip-rule="evenodd" d="M10.0011 5.8407C9.11714 5.8407 8.26934 6.18915 7.64425 6.80962C7.01916 7.43008 6.66798 8.27182 6.66797 9.1493V19.0747C6.66798 19.9522 7.01916 20.7939 7.64425 21.4144C8.26934 22.0348 9.11714 22.3833 10.0011 22.3833H13.2562L16.5894 5.8407H10.0011Z" fill="#000"/>
<path fill-rule="evenodd" clip-rule="evenodd" d="M19.9904 5.8407L16.6572 22.3833H23.2585L26.5917 5.8407H19.9904Z" fill="#000"/>
<path fill-rule="evenodd" clip-rule="evenodd" d="M29.9816 5.8407L26.6484 22.3833H33.2497L36.5764 5.8407H29.9816Z" fill="#000"/>
<path fill-rule="evenodd" clip-rule="evenodd" d="M39.9943 5.8407L36.6611 22.3833H43.2624L46.5956 5.8407H39.9943Z" fill="#000"/>
<path fill-rule="evenodd" clip-rule="evenodd" d="M49.9855 5.8407L46.6523 22.3833H53.2536L56.5803 5.8407H49.9855Z" fill="#000"/>
<path fill-rule="evenodd" clip-rule="evenodd" d="M59.9683 5.8407L56.6416 22.3833H66.6542V5.8407H59.9683Z" fill="#000"/>
<path fill-rule="evenodd" clip-rule="evenodd" d="M3.33319 9.15002C1.4923 9.15002 0 10.6313 0 12.4586V15.7672C0 17.5944 1.4923 19.0754 3.33319 19.0754V9.15002Z" fill="#000"/>
<path fill-rule="evenodd" clip-rule="evenodd" d="M73.3281 30.6549L73.3279 32.0493C73.3274 35.6507 70.3433 38.57 66.6615 38.57H14.9972C13.1564 38.57 11.6641 40.0298 11.6641 41.8302C11.6641 43.6308 13.1564 45.0904 14.9972 45.0904H50.1814C52.2512 45.0904 54.2926 45.5619 56.144 46.4672L64.266 50.4395C69.8333 53.1621 76.4877 52.6237 81.5216 49.0428L88.154 44.3245C90.4328 42.7036 93.1782 41.8302 95.996 41.8302H99.9933L99.9935 30.6549H73.3281Z" fill="#000"/>
</svg>