<svg width="100" height="65" viewBox="0 0 100 65" fill="none" xmlns="http://www.w3.org/2000/svg">
<path d="M21.4336 0.0628662V3.62H25.0058V60.5342H21.4336V64.0913H85.7333C90.2945 64.0913 94.2801 61.2671 95.7802 56.977C101.407 40.8831 101.407 23.2711 95.7802 7.17714C94.2801 2.88877 90.2945 0.0628662 85.7333 0.0628662H21.4336ZM82.1611 3.62H85.7333C88.7753 3.62 91.4318 5.54099 92.4312 8.3999C97.793 23.7366 97.793 40.4176 92.4312 55.7543C91.4318 58.6132 88.7753 60.5342 85.7333 60.5342H82.1611V42.7485H85.7333V21.4057H82.1611V3.62ZM39.2946 8.95571H67.8723V21.4057H39.2946V8.95571ZM39.2946 42.7485H67.8723V55.1985H39.2946V42.7485Z" fill="#000"/>
<path d="M23.2194 42.7484H14.2888V40.9698H3.57221L0 37.4127V26.7412L3.57221 23.1841H14.2888V21.4055H23.2194V42.7484Z" fill="#000"/>
</svg>
