<svg width="108" height="72" viewBox="0 0 108 72" fill="none" xmlns="http://www.w3.org/2000/svg">
<path d="M107.984 66.2748C107.975 66.0401 107.967 65.8043 107.959 65.5676C107.95 65.3309 107.942 65.0935 107.933 64.855L107.926 64.6765L107.923 64.587L107.922 64.5646L107.92 64.3646L107.919 64.3552L107.916 64.3182L107.893 64.0218C107.862 63.6263 107.832 63.2291 107.801 62.8319L107.777 62.5312L107.742 62.1412C107.717 61.8819 107.693 61.6227 107.668 61.3641C107.643 61.1059 107.617 60.8481 107.592 60.5912C107.579 60.4628 107.566 60.3347 107.553 60.2068C107.538 60.0885 107.522 59.9703 107.506 59.8522C107.377 58.9152 107.261 57.9944 107.096 57.1091C107.018 56.6662 106.946 56.2307 106.865 55.8062C106.777 55.3827 106.69 54.9687 106.606 54.5654C106.447 53.7585 106.247 53.0049 106.078 52.3083C106.035 52.1344 105.992 51.9639 105.951 51.7976C105.905 51.6319 105.86 51.4705 105.817 51.3128C105.728 50.9984 105.643 50.7 105.564 50.4198C105.483 50.1401 105.412 49.8775 105.338 49.6367C105.261 49.3967 105.191 49.1761 105.127 48.977C105.033 48.6843 104.954 48.4379 104.891 48.2431C104.798 47.9556 104.495 47.794 104.204 47.8767L85.9448 53.0802C85.6667 53.1594 85.4942 53.4366 85.5472 53.721C85.567 53.8272 85.5896 53.9488 85.6148 54.0849C85.6409 54.2219 85.6697 54.3738 85.7011 54.539C85.7308 54.7046 85.7541 54.886 85.784 55.0778C85.8133 55.2698 85.8445 55.4744 85.8773 55.6898C85.8933 55.7974 85.9123 55.9071 85.9272 56.0206C85.9402 56.1343 85.9534 56.2508 85.967 56.3696C86.0178 56.8453 86.0938 57.3553 86.1277 57.9021C86.1501 58.1741 86.1732 58.4537 86.1969 58.7389C86.2146 59.0252 86.2235 59.3185 86.2387 59.6153C86.2783 60.2079 86.2708 60.825 86.2822 61.4473L86.2848 61.6791L86.2766 61.8843C86.2719 62.0211 86.2671 62.1581 86.2625 62.2955C86.2588 62.4323 86.2551 62.5695 86.2513 62.7069L86.247 62.9124L86.2345 63.2082C86.2177 63.6063 86.2005 64.0042 86.1836 64.4007L86.171 64.6978L86.1693 64.7348L86.1689 64.7439C86.1691 64.7886 86.1655 64.3902 86.1667 64.5623L86.1652 64.5769L86.1597 64.6356L86.1489 64.7528C86.1348 64.9089 86.1207 65.0641 86.1067 65.2191C86.0932 65.3736 86.0797 65.5278 86.0664 65.6809C86.0482 65.8335 86.0301 65.9853 86.0119 66.1361C85.9732 66.4374 85.9493 66.7358 85.9013 67.0265C85.8592 67.3174 85.8179 67.6031 85.7774 67.8831C85.729 68.161 85.6817 68.4331 85.6357 68.6977C85.5941 68.9626 85.5384 69.2177 85.4889 69.4647C85.437 69.7111 85.3958 69.9504 85.342 70.1776C85.2896 70.4047 85.2393 70.6221 85.1915 70.829C85.1678 70.9311 85.1449 71.0305 85.1226 71.1274C85.0996 71.2104 85.0774 71.2909 85.0557 71.369C85.043 71.4167 85.0309 71.4615 85.0186 71.5078H107.351C107.65 71.5078 107.899 71.2729 107.911 70.9738C107.911 70.972 107.911 70.9703 107.911 70.9685C107.929 70.5526 107.948 70.1256 107.968 69.6891C107.976 69.253 107.985 68.8073 107.993 68.3542C108.006 67.9015 107.992 67.4414 107.991 66.9762C107.989 66.7437 107.986 66.5099 107.984 66.2748Z" fill="white"/>
<path d="M102.178 42.8357C102.477 42.7151 102.614 42.3681 102.476 42.0763C102.414 41.9466 102.343 41.7949 102.261 41.6234C102.185 41.4622 102.1 41.2837 102.008 41.0894C101.888 40.8465 101.76 40.5839 101.622 40.3032C101.483 40.0236 101.335 39.7261 101.179 39.4126C101.1 39.2496 101.022 39.1151 100.941 38.9621C100.86 38.8124 100.777 38.6594 100.693 38.5031C100.522 38.1912 100.348 37.865 100.162 37.531C99.9687 37.2006 99.7693 36.8589 99.5643 36.5076C99.4616 36.3324 99.3573 36.1547 99.2518 35.9751C99.1414 35.7982 99.0297 35.6192 98.9168 35.4382C98.6898 35.0777 98.4577 34.7092 98.222 34.3348C97.7244 33.6015 97.229 32.8346 96.6762 32.0883C96.5405 31.9003 96.4039 31.7117 96.2672 31.5226L96.0614 31.239L95.8472 30.9602C95.5607 30.5892 95.2731 30.217 94.9855 29.8447C94.6927 29.4767 94.3899 29.1165 94.0931 28.7548C93.943 28.5752 93.7976 28.393 93.6445 28.2174C93.4909 28.0425 93.3379 27.868 93.1852 27.6941C93.0325 27.521 92.8805 27.3482 92.7292 27.1764C92.5788 27.004 92.4271 26.8345 92.2707 26.6705C91.961 26.3407 91.6552 26.015 91.3544 25.6946C91.0532 25.3751 90.7412 25.0749 90.4444 24.7747C90.1454 24.4762 89.8548 24.183 89.5581 23.9107C89.2647 23.6361 88.9791 23.3689 88.7031 23.1104C88.4282 22.8513 88.1475 22.616 87.886 22.3829C87.6224 22.1524 87.3697 21.9315 87.1293 21.7214C86.8829 21.5183 86.649 21.3257 86.4294 21.1447C86.2095 20.9644 86.0039 20.7957 85.8137 20.6397C85.6231 20.4843 85.4409 20.3496 85.2803 20.224C85.0463 20.0445 84.8487 19.8928 84.6917 19.7723C84.4524 19.5886 84.1113 19.6278 83.9189 19.8605L74.1189 31.723C73.9341 31.9467 73.95 32.2737 74.1561 32.4779C74.238 32.5588 74.3326 32.6525 74.439 32.7579C74.541 32.8603 74.6579 32.9687 74.7777 33.0954C74.8975 33.2219 75.0269 33.3589 75.1652 33.5051C75.3038 33.6506 75.4511 33.8055 75.6063 33.9687C75.756 34.1372 75.9135 34.3147 76.0778 34.4996C76.24 34.6863 76.4174 34.8716 76.5861 35.0783C76.7562 35.2829 76.9321 35.4943 77.1131 35.7118C77.2974 35.9253 77.4733 36.1571 77.6554 36.3913C77.8356 36.6271 78.0281 36.8596 78.2091 37.1089C78.3902 37.3574 78.5743 37.61 78.7606 37.8658C78.8556 37.9916 78.9458 38.123 79.0346 38.2562C79.1244 38.3885 79.2147 38.5213 79.3053 38.6548C79.396 38.7875 79.4873 38.921 79.5786 39.0549C79.6697 39.1889 79.7533 39.3289 79.8414 39.4659C80.0144 39.7424 80.1938 40.0148 80.3639 40.2932C80.5296 40.5743 80.6955 40.8556 80.8606 41.1356L80.9845 41.3445L81.1006 41.5579C81.1781 41.6996 81.2553 41.841 81.3323 41.9816C81.65 42.5374 81.9182 43.1105 82.1989 43.6489C82.3273 43.9249 82.4536 44.1962 82.5773 44.462C82.6392 44.5943 82.7003 44.7253 82.7608 44.8545C82.8169 44.9862 82.8721 45.1161 82.9267 45.2445C83.0364 45.4998 83.143 45.7485 83.2464 45.9887C83.3417 46.2324 83.4338 46.4677 83.5223 46.6935C83.5666 46.8062 83.6098 46.9166 83.6521 47.0245C83.6921 47.1298 83.7417 47.2437 83.7683 47.3314C83.8314 47.5154 83.8911 47.6901 83.9472 47.8543C84.0045 48.0173 84.0583 48.1698 84.1079 48.3109C84.173 48.5054 84.2328 48.6836 84.2868 48.8448C84.3469 49.0249 84.3999 49.1841 84.4454 49.3205C84.5475 49.6266 84.8865 49.7827 85.186 49.6624L102.178 42.8357Z" fill="white"/>
<path d="M52.2726 21.6471C52.4211 21.6674 52.5852 21.6898 52.7642 21.7142C52.942 21.7451 53.1343 21.7787 53.3397 21.8145C53.5448 21.8497 53.7631 21.8871 53.9931 21.9267C54.1929 21.9599 54.4 22.0081 54.6152 22.0531L60.8 9.4021C60.4934 9.35424 60.1893 9.30672 59.8913 9.26023C59.6872 9.22987 59.4862 9.19497 59.286 9.16996C59.0858 9.14575 58.888 9.12176 58.6928 9.09811C58.3029 9.05184 57.9238 9.00671 57.5572 8.96317C57.1895 8.93168 56.8343 8.90121 56.4933 8.87199C56.1523 8.84585 55.827 8.8114 55.5156 8.79662C55.2048 8.78139 54.9099 8.76684 54.6329 8.75319C54.3561 8.74012 54.0971 8.72796 53.8578 8.71659C53.6183 8.71272 53.3982 8.7092 53.1993 8.70602C52.9197 8.70261 52.6823 8.69976 52.492 8.69749C52.1902 8.69385 51.9404 8.92975 51.926 9.23124L51.362 21.0063C51.3481 21.2964 51.5574 21.549 51.8451 21.5885C51.9677 21.6053 52.1106 21.625 52.2726 21.6471Z" fill="white"/>
<path d="M68.8952 28.1308C69.0614 28.2516 69.219 28.3662 69.367 28.4741C69.5152 28.5803 69.6541 28.6797 69.7824 28.7716C69.838 28.8098 69.9297 28.8794 70.0047 28.9351C70.0818 28.9927 70.1554 29.0476 70.2251 29.0997C70.3773 29.2133 70.5117 29.3136 70.6267 29.3994C70.8855 29.5924 71.2527 29.5272 71.4299 29.2573L79.5049 16.9571C79.6822 16.6872 79.5962 16.3243 79.3161 16.1636C79.1915 16.0922 79.0461 16.0088 78.8815 15.9143C78.8059 15.8709 78.7263 15.8253 78.6426 15.7773C78.5515 15.7258 78.4564 15.6719 78.3571 15.6158C78.1274 15.4891 77.8789 15.3524 77.6134 15.2061C77.3479 15.0613 77.0651 14.9074 76.7673 14.745C76.4834 14.6027 76.1851 14.4532 75.8737 14.2972C75.5611 14.1446 75.2421 13.9749 74.9 13.8208C74.5595 13.6648 74.2076 13.5035 73.8458 13.3377C73.4865 13.168 73.1072 13.014 72.7223 12.8523C72.3357 12.6941 71.9468 12.5211 71.5406 12.3684C71.4378 12.3294 71.3333 12.2899 71.2296 12.2506L67.7461 27.3704C67.9387 27.4913 68.1201 27.6195 68.2988 27.7353C68.5069 27.8732 68.7058 28.0052 68.8952 28.1308Z" fill="white"/>
<path d="M41.4299 21.5855C41.5859 21.5649 41.739 21.5394 41.8919 21.5233C42.0448 21.5078 42.1959 21.4925 42.3448 21.4772C42.6421 21.4464 42.9312 21.4164 43.211 21.3873C43.4915 21.3686 43.7627 21.3504 44.0229 21.3329C44.1527 21.324 44.2798 21.3153 44.4041 21.3068C44.528 21.2985 44.6521 21.288 44.7585 21.2878C44.9778 21.282 45.186 21.2767 45.3814 21.2716C45.5763 21.2654 45.7584 21.2596 45.9271 21.2543C46.135 21.2529 46.326 21.2517 46.4984 21.2506C46.6882 21.2495 46.856 21.2486 46.9995 21.2478C47.3224 21.2461 47.5761 20.9727 47.555 20.6505L46.8281 9.55838C46.8068 9.2362 46.5196 8.99826 46.1994 9.03873C46.0569 9.05669 45.8906 9.07772 45.7022 9.10148C45.5276 9.12365 45.3342 9.14832 45.1237 9.17515C44.875 9.2121 44.606 9.25189 44.3185 9.29452C44.0319 9.33817 43.7268 9.38467 43.4051 9.43367C43.2405 9.45686 43.089 9.48767 42.9299 9.51768C42.7714 9.54792 42.6091 9.57896 42.4435 9.61056C42.1128 9.67445 41.7684 9.74107 41.4117 9.80996C41.0578 9.89056 40.6917 9.97401 40.3156 10.0596C40.1279 10.1027 39.9376 10.1465 39.745 10.1908C39.5526 10.2358 39.3597 10.2908 39.164 10.3414C38.7735 10.4455 38.3749 10.5518 37.9692 10.6598C37.5677 10.7808 37.1595 10.9038 36.7463 11.0284C36.5403 11.0922 36.3322 11.1523 36.1253 11.2204C35.9193 11.2908 35.7118 11.3614 35.5038 11.4325C35.2961 11.5036 35.0876 11.575 34.8785 11.6468C34.6693 11.7179 34.4598 11.7894 34.2531 11.8709C33.8387 12.0291 33.4228 12.1879 33.0068 12.3467C32.5927 12.5088 32.1853 12.6884 31.7771 12.8584C31.5736 12.9451 31.3695 13.0288 31.1684 13.1178C30.9687 13.21 30.7696 13.3019 30.5712 13.3935C30.3733 13.4851 30.1761 13.5765 29.98 13.6674C29.7839 13.7581 29.5886 13.8474 29.3987 13.946C29.0176 14.1384 28.6412 14.3284 28.2711 14.5153C27.9008 14.701 27.5479 14.9058 27.1974 15.0944C26.8485 15.2866 26.5054 15.4698 26.1818 15.6673C25.8563 15.8603 25.5397 16.0483 25.2334 16.2299C24.9263 16.4091 24.6414 16.6026 24.3622 16.7774C24.0849 16.9551 23.8192 17.1255 23.5665 17.2875C23.3192 17.4573 23.0846 17.6182 22.8641 17.7695C22.6443 17.921 22.4385 18.0626 22.2482 18.1937C22.0581 18.3248 21.89 18.4547 21.735 18.567C21.5251 18.7221 21.3458 18.8544 21.2007 18.9615C20.9585 19.1403 20.9016 19.4781 21.071 19.7272L25.6769 26.4989C25.8409 26.7399 26.1613 26.8155 26.4152 26.6721C26.5322 26.6062 26.6704 26.5281 26.8281 26.4392C26.9655 26.3631 27.1142 26.2733 27.2821 26.1859C27.4499 26.0984 27.6314 26.004 27.8252 25.9031C28.0185 25.802 28.2242 25.6945 28.441 25.5811C28.6616 25.4754 28.8934 25.3642 29.1353 25.2482C29.3784 25.135 29.6249 25.0053 29.8908 24.8922C30.1547 24.7763 30.4275 24.6566 30.7081 24.5335C30.9858 24.4056 31.2801 24.2939 31.5777 24.1745C31.8769 24.0585 32.1766 23.9274 32.4905 23.8165C32.803 23.7038 33.1208 23.5894 33.4424 23.4734C33.6019 23.4128 33.7661 23.3615 33.9306 23.309C34.0948 23.2562 34.2598 23.2031 34.4255 23.1498C34.5908 23.0963 34.7567 23.0427 34.9232 22.9888C35.0905 22.938 35.2603 22.8925 35.4288 22.8438C35.7675 22.7502 36.1039 22.6462 36.445 22.5592C36.7862 22.4747 37.1275 22.3902 37.4674 22.3062C37.6361 22.2613 37.8073 22.2262 37.9778 22.1911C38.1478 22.1552 38.3174 22.1196 38.4865 22.084C38.655 22.0482 38.8229 22.0126 38.99 21.9771C39.1575 21.9437 39.3258 21.9179 39.4919 21.888C39.8241 21.8303 40.1522 21.7733 40.4751 21.7173C40.7991 21.6727 41.1177 21.6285 41.4299 21.5855Z" fill="white"/>
<path d="M10.0246 30.3408C9.90382 30.5115 9.78263 30.6831 9.66088 30.8553C9.53946 31.0274 9.41759 31.2002 9.29527 31.3736C9.17352 31.5472 9.0596 31.7273 8.94114 31.9044C8.70764 32.261 8.46867 32.6149 8.23994 32.9755C8.01655 33.3392 7.79316 33.7029 7.57068 34.0652L7.40471 34.3364L7.24714 34.6121C7.14244 34.7954 7.03808 34.9783 6.93405 35.1603C6.50888 35.8825 6.13952 36.6208 5.76413 37.322C5.5894 37.6795 5.41751 38.0312 5.24926 38.3754C5.16581 38.5473 5.08317 38.7176 5.00165 38.8856C4.92492 39.0559 4.8492 39.2243 4.7744 39.3905C4.62547 39.7222 4.48064 40.0451 4.34047 40.3573C4.20973 40.6734 4.08332 40.9788 3.96201 41.2718C3.8431 41.5658 3.72294 41.844 3.62051 42.114C3.51944 42.3842 3.42349 42.6407 3.33323 42.8816C3.24342 43.1223 3.15941 43.3475 3.08176 43.5557C3.01003 43.7661 2.9442 43.9592 2.88463 44.1337C2.80733 44.3631 2.74094 44.56 2.68671 44.7212C2.59064 45.0061 2.73673 45.3152 3.01753 45.4229L7.30455 47.0664C7.57739 47.171 7.88468 47.0489 8.01076 46.7853C8.07328 46.6548 8.14797 46.4985 8.2338 46.3189C8.30497 46.171 8.38364 46.0072 8.46947 45.8289C8.56065 45.653 8.65921 45.4631 8.76459 45.26C8.86964 45.0575 8.98128 44.8416 9.09905 44.6143C9.21774 44.3876 9.35439 44.1551 9.49001 43.9095C9.62734 43.6653 9.77047 43.4108 9.9186 43.1473C10.0747 42.8889 10.236 42.6215 10.402 42.3466C10.4846 42.2094 10.5684 42.0704 10.6532 41.9296C10.7425 41.7915 10.8328 41.6519 10.9241 41.5103C11.1067 41.2284 11.2933 40.9406 11.483 40.6475C11.8861 40.0768 12.2804 39.4757 12.7259 38.8961C12.8347 38.7495 12.944 38.6025 13.0535 38.4551L13.2178 38.2337L13.3899 38.0173C13.6191 37.7286 13.8492 37.4391 14.0793 37.1495C14.3136 36.8635 14.5568 36.5849 14.7931 36.3038C14.913 36.1644 15.028 36.022 15.1507 35.8864C15.2735 35.751 15.3958 35.6159 15.5176 35.4815C15.6393 35.3471 15.7604 35.2133 15.8809 35.08C16.0002 34.9461 16.1207 34.8146 16.2459 34.6885C16.4921 34.4335 16.7354 34.1816 16.9747 33.9337C17.2136 33.6862 17.4629 33.4565 17.6982 33.2244C17.9354 32.9939 18.1648 32.7666 18.401 32.5582C18.6334 32.3467 18.8594 32.1411 19.0781 31.942C19.295 31.7418 19.5185 31.5631 19.725 31.3837C19.9328 31.2067 20.132 31.0371 20.3214 30.8758C20.5074 30.7286 20.6838 30.589 20.8495 30.4575C21.0144 30.3263 21.1687 30.2035 21.3113 30.0898C21.3768 30.0357 21.4655 29.9709 21.5404 29.9139C21.6172 29.8558 21.6906 29.8006 21.7601 29.7481C21.9117 29.6337 22.0455 29.5327 22.1601 29.4463C22.4178 29.2518 22.4577 28.881 22.2481 28.6354L17.3671 22.9172C17.1574 22.6717 16.7849 22.6529 16.5524 22.8769C16.4491 22.9764 16.3282 23.0927 16.1916 23.2245C16.1288 23.2849 16.0626 23.3487 15.9933 23.4154C15.9227 23.4839 15.8555 23.5463 15.768 23.6358C15.6006 23.8046 15.4198 23.9873 15.2264 24.1824C15.034 24.3776 14.8293 24.5853 14.6134 24.8043C14.4128 25.0216 14.2018 25.2501 13.9817 25.4885C13.7643 25.7287 13.5299 25.9708 13.3031 26.2361C13.0754 26.5001 12.84 26.773 12.598 27.0535C12.353 27.3307 12.116 27.6284 11.8721 27.9305C11.6301 28.2341 11.375 28.5371 11.1316 28.8581C10.8889 29.1792 10.6422 29.5055 10.3925 29.8361C10.2657 30 10.1444 30.1691 10.0246 30.3408Z" fill="white"/>
<path d="M1.15446 50.3891C1.12593 50.5296 1.0925 50.6942 1.05465 50.8802C1.01997 51.051 0.981547 51.2401 0.939712 51.446C0.898672 51.6566 0.858541 51.9052 0.81375 52.1589C0.769641 52.4152 0.722803 52.6878 0.673464 52.9752C0.64959 53.1184 0.622306 53.2664 0.599683 53.4157C0.579561 53.5641 0.559098 53.7157 0.538066 53.8704C0.458033 54.4904 0.352648 55.1573 0.29194 55.8699C0.256698 56.2249 0.220547 56.5895 0.1836 56.9623C0.153132 57.3355 0.132783 57.7177 0.106522 58.1052C0.0451325 58.8795 0.0338778 59.6825 0.00829893 60.4949L0 60.8003L0.00147789 61.1069C0.00261473 61.3116 0.00375157 61.5167 0.00488841 61.7224C0.00613893 61.9278 0.00738946 62.1336 0.0085263 62.3394L0.0104589 62.6483L0.0222821 62.9574C0.0389936 63.3686 0.0557052 63.78 0.0724167 64.1898L0.0850356 64.4961L0.0889009 64.5954L0.0943577 64.6693L0.105271 64.8169C0.119823 65.0139 0.134261 65.2102 0.148699 65.4058C0.163136 65.6015 0.177574 65.7962 0.191785 65.9901C0.211452 66.1921 0.230892 66.3935 0.250446 66.5936C0.270113 66.7935 0.289667 66.9919 0.309107 67.1893C0.318884 67.2876 0.32866 67.3859 0.338437 67.4835C0.350601 67.5797 0.362766 67.6755 0.374816 67.771C0.423245 68.1519 0.470879 68.5265 0.517489 68.8932C0.573763 69.2582 0.628786 69.6155 0.682218 69.9632C0.732238 70.3107 0.796697 70.6469 0.855927 70.9719C0.860815 70.9979 0.865703 71.0236 0.870478 71.0494C0.919931 71.3152 1.15116 71.5077 1.42139 71.5077H2.93236C3.255 71.5077 3.51102 71.2361 3.49203 70.9142C3.48691 70.8282 3.48169 70.7414 3.47589 70.6537C3.45702 70.3404 3.43428 70.0173 3.427 69.6839C3.41609 69.351 3.40495 69.009 3.39347 68.6596C3.39131 68.3103 3.38915 67.9535 3.38699 67.5905C3.38642 67.4999 3.38585 67.4088 3.38528 67.3177C3.38721 67.2277 3.38926 67.1374 3.39131 67.0465C3.39529 66.8655 3.39926 66.6831 3.40336 66.4995C3.40734 66.3163 3.41143 66.1318 3.41552 65.9464C3.42462 65.7523 3.4336 65.5571 3.44281 65.3614C3.4519 65.1655 3.46111 64.9688 3.4702 64.7716L3.47714 64.6235L3.48055 64.5493L3.481 64.54C3.481 64.5165 3.48146 64.5617 3.48169 64.554L3.48305 64.536L3.48589 64.5003L3.50886 64.2135C3.53932 63.831 3.5699 63.4473 3.6006 63.0634L3.62402 62.7761L3.6571 62.4895C3.67915 62.2987 3.7011 62.1082 3.72304 61.918C3.74486 61.7279 3.76669 61.5383 3.7884 61.3494L3.8208 61.0665L3.86275 60.7856C3.9778 60.0387 4.07557 59.304 4.21881 58.6005C4.286 58.2481 4.34614 57.9013 4.41514 57.5638C4.49029 57.2276 4.56373 56.8988 4.63524 56.5786C4.76756 55.9373 4.93911 55.3412 5.07872 54.7885C5.11453 54.6506 5.14954 54.5155 5.18376 54.3836C5.21991 54.2537 5.25891 54.1307 5.29483 54.0088C5.36725 53.7663 5.43603 53.5363 5.5006 53.32C5.56665 53.1019 5.62088 52.907 5.68409 52.7113C5.75036 52.5117 5.81107 52.3288 5.86609 52.1634C5.92589 51.9831 5.97875 51.8239 6.024 51.6875C6.12575 51.3813 5.94806 51.0531 5.63611 50.97L1.84827 49.9599C1.53621 49.8766 1.21881 50.0727 1.15446 50.3891Z" fill="white"/>
<path d="M44.0327 70.0221C45.265 70.6246 46.5704 70.9101 47.8556 70.9101C51.0818 70.9101 54.1822 69.1127 55.6945 66.0191C55.9858 65.4236 56.2112 64.7662 56.3578 64.1471L65.1771 25.8677L68.5358 11.2897L70.6165 2.25899C70.8587 1.20799 70.0226 0.492004 69.1839 0.492004C68.6929 0.492004 68.2009 0.737449 67.9235 1.30462L63.6893 9.9654L57.4431 22.7419L40.0295 58.3603C37.9147 62.6861 39.707 67.9074 44.0327 70.0221ZM48.179 57.6949C50.5389 57.6949 52.4521 59.608 52.4521 61.9681C52.4521 64.3279 50.5389 66.2412 48.179 66.2412C45.819 66.2412 43.9058 64.3279 43.9058 61.9681C43.9058 59.6078 45.819 57.6949 48.179 57.6949Z" fill="white"/>
</svg>
