<svg width="108" height="84" viewBox="0 0 108 84" fill="none" xmlns="http://www.w3.org/2000/svg">
<path d="M38.8551 39.5916C40.4959 37.6873 41.489 35.2095 41.489 32.5044C41.489 26.5104 36.6127 21.6341 30.6187 21.6341C24.6244 21.6341 19.7478 26.5104 19.7478 32.5044C19.7478 35.2095 20.7412 37.6873 22.382 39.5916C18.5705 41.6304 15.9716 45.6512 15.9716 50.2675V59.7633C15.9716 61.2009 17.1367 62.366 18.5743 62.366H42.6628C44.1004 62.366 45.2655 61.2009 45.2655 59.7633V50.2675C45.2658 45.6512 42.6668 41.6304 38.8551 39.5916ZM30.6187 26.8395C33.7425 26.8395 36.2836 29.3809 36.2836 32.5044C36.2836 35.6089 33.7734 38.1384 30.6762 38.1694H30.5611C27.4636 38.1384 24.9532 35.6089 24.9532 32.5044C24.9535 29.3806 27.4949 26.8395 30.6187 26.8395ZM40.0604 57.1606H21.1773V50.2675C21.1773 46.4667 24.269 43.3747 28.0695 43.3747H30.5394C30.5921 43.3747 30.6456 43.3747 30.6982 43.3747H33.1679C36.9687 43.3747 40.0607 46.4667 40.0607 50.2675V57.1606H40.0604ZM56.6156 30.5333C56.6156 29.0958 57.7807 27.9306 59.2183 27.9306H73.2876C74.7251 27.9306 75.8903 29.0958 75.8903 30.5333C75.8903 31.9709 74.7251 33.136 73.2876 33.136H59.2183C57.781 33.136 56.6156 31.9709 56.6156 30.5333ZM96.9816 0.849311H89.9237C89.8893 0.848732 89.8549 0.848732 89.8205 0.849311H76.2613C76.2269 0.848732 76.1925 0.848732 76.158 0.849311H62.5992C62.5645 0.848732 62.5298 0.848732 62.4956 0.849311H48.9356C48.9015 0.848732 48.8676 0.848732 48.8332 0.849311H35.274C35.2396 0.848732 35.2052 0.848732 35.1708 0.849311H21.6119C21.5775 0.848732 21.5431 0.848732 21.5087 0.849311H11.0178C4.94252 0.849311 0 5.79212 0 11.8671V72.1322C0 78.2078 4.94252 83.1506 11.0178 83.1506H18.0763C18.1113 83.1514 18.1457 83.1511 18.1798 83.1506H31.7387C31.7737 83.1514 31.8081 83.1511 31.8422 83.1506H45.4017C45.4358 83.1511 45.47 83.1511 45.5041 83.1506H59.0641C59.0982 83.1511 59.1324 83.1511 59.1665 83.1506H72.7257C72.743 83.1509 72.7604 83.1512 72.7774 83.1512C72.7948 83.1512 72.8121 83.1509 72.8292 83.1506H86.3884C86.4228 83.1511 86.4572 83.1511 86.4913 83.1506H96.981C103.057 83.1506 107.999 78.2078 107.999 72.1322V11.8671C108 5.79212 103.057 0.849311 96.9816 0.849311ZM102.795 72.1322C102.795 75.3376 100.187 77.9452 96.9816 77.9452H90.7655L92.1698 75.293C92.8425 74.0226 92.3578 72.4477 91.0877 71.7748C89.8173 71.1018 88.2421 71.5868 87.5697 72.8572L84.8756 77.9452H77.1034L78.5077 75.293C79.1804 74.0226 78.696 72.4477 77.4256 71.7748C76.1546 71.1021 74.5802 71.5865 73.9073 72.8569L71.2129 77.9452H63.4407L64.845 75.293C65.5176 74.0226 65.0333 72.4477 63.7629 71.7748C62.4924 71.1021 60.9172 71.5865 60.2446 72.8569L57.5502 77.9452H49.778L51.1823 75.293C51.8549 74.0226 51.3706 72.4477 50.1001 71.7748C48.8295 71.1021 47.2548 71.5865 46.5819 72.8569L43.8875 77.9452H36.1153L37.5196 75.293C38.1922 74.0226 37.7078 72.4477 36.4374 71.7748C35.1665 71.1021 33.5921 71.5865 32.9192 72.8569L30.2248 77.9452H22.4537L23.858 75.293C24.5307 74.0226 24.0463 72.4477 22.7759 71.7748C21.5055 71.1021 19.9306 71.5865 19.2576 72.8569L16.5633 77.9452H11.0178C7.81271 77.9452 5.20539 75.3376 5.20539 72.1322V11.8671C5.20539 8.66202 7.813 6.0547 11.0178 6.0547H17.2348L15.8305 8.70656C15.1578 9.97696 15.6422 11.5519 16.9126 12.2248C18.1827 12.8972 19.7576 12.4128 20.4309 11.1427L23.1252 6.0547H30.8969L29.4926 8.70656C28.8199 9.97696 29.3043 11.5519 30.5747 12.2248C31.8451 12.8972 33.4201 12.4128 34.093 11.1427L36.7874 6.0547H44.5593L43.155 8.70685C42.4823 9.97725 42.967 11.5522 44.2374 12.2248C45.5075 12.8972 47.083 12.4128 47.7554 11.1427L50.4495 6.0547H58.222L56.8177 8.70656C56.1451 9.97696 56.6294 11.5519 57.8998 12.2248C59.17 12.8972 60.7452 12.4128 61.4181 11.1427L64.1125 6.0547H71.8847L70.4804 8.70656C69.8078 9.97696 70.2921 11.5519 71.5626 12.2248C72.833 12.8972 74.4079 12.4128 75.0808 11.1427L77.7752 6.0547H85.5474L84.1431 8.70656C83.4705 9.97696 83.9548 11.5519 85.2253 12.2248C86.4957 12.8972 88.0706 12.4128 88.7435 11.1427L91.4379 6.0547H96.9831C100.188 6.0547 102.796 8.66231 102.796 11.8671V72.1322H102.795ZM92.4723 53.4663C92.4723 54.9038 91.3072 56.069 89.8696 56.069H59.2183C57.7807 56.069 56.6156 54.9038 56.6156 53.4663C56.6156 52.0287 57.7807 50.8636 59.2183 50.8636H89.8696C91.3072 50.8636 92.4723 52.0287 92.4723 53.4663ZM92.4723 43.126C92.4723 44.5636 91.3072 45.7287 89.8696 45.7287H59.2183C57.7807 45.7287 56.6156 44.5636 56.6156 43.126C56.6156 41.6885 57.7807 40.5233 59.2183 40.5233H89.8696C91.3072 40.5233 92.4723 41.6888 92.4723 43.126Z" fill="white"/>
</svg>
