<?xml version="1.0" encoding="utf-8"?>
<!-- Generator: Adobe Illustrator 22.0.0, SVG Export Plug-In . SVG Version: 6.00 Build 0)  -->
<svg version="1.1" id="Layer_1" xmlns="http://www.w3.org/2000/svg" xmlns:xlink="http://www.w3.org/1999/xlink" x="0px" y="0px"
	 viewBox="0 0 18 19" style="enable-background:new 0 0 18 19;" xml:space="preserve">
<path d="M1.6,14.3h13c0.9,0,1.6-0.7,1.6-1.6v-0.7h1.1c0.4,0,0.8-0.3,0.8-0.8V7.7c0-0.4-0.3-0.8-0.8-0.8h-1.1V6.3
	c0-0.9-0.7-1.6-1.6-1.6h-13C0.7,4.7,0,5.4,0,6.3v6.5C0,13.6,0.7,14.3,1.6,14.3z M1.6,6.3h13v6.5h-13V6.3z"/>
<path d="M13.1,7.4h-10c-0.2,0-0.3,0.1-0.3,0.3v3.5c0,0.2,0.1,0.3,0.3,0.3h10c0.2,0,0.3-0.1,0.3-0.3V7.7C13.4,7.6,13.2,7.4,13.1,7.4z
	"/>
</svg>
