<?xml version="1.0" encoding="utf-8"?>
<!-- Generator: Adobe Illustrator 22.0.0, SVG Export Plug-In . SVG Version: 6.00 Build 0)  -->
<svg version="1.1" id="Layer_1" xmlns="http://www.w3.org/2000/svg" xmlns:xlink="http://www.w3.org/1999/xlink" x="0px" y="0px"
	 viewBox="0 0 18 18" style="enable-background:new 0 0 18 18;" xml:space="preserve">
<path d="M11.8,4.1c0.8,0.5,1.8,0.2,2.2-0.6c0.5-0.8,0.2-1.8-0.6-2.2c-0.8-0.5-1.8-0.2-2.2,0.6C10.7,2.7,11,3.7,11.8,4.1z"/>
<path d="M14.4,9.7c-0.1,0-0.2,0-0.3,0l-0.5-2.6L13.8,7c0.4-0.1,0.6-0.6,0.4-1c-0.1-0.4-0.6-0.6-1-0.4l-1.9,0.7l-0.1-0.7
	c0.2-0.5,0.2-1.1-0.2-1.5c-0.8-0.9-1.7-0.5-2-0.2L5.2,7l0,0C5,7.1,4.9,7.3,4.9,7.4C4.8,7.6,4.8,7.8,4.8,8c-0.3,0-0.6,0.3-0.6,0.6
	c0,0.3,0.3,0.6,0.6,0.6L4.6,9.8C4.3,9.7,4,9.7,3.6,9.7c-2,0-3.6,1.6-3.6,3.6c0,2,1.6,3.6,3.6,3.6c2,0,3.6-1.6,3.6-3.6
	c0-1.3-0.7-2.5-1.8-3.1l0.4-0.9h0.7l2.2,0.9l-1.2,1.9c-0.3,0.5-0.1,1.1,0.4,1.5c0.2,0.1,0.4,0.2,0.5,0.2c0.4,0,0.7-0.2,0.9-0.5
	l1.1-1.8l0.7,0.4c-0.2,0.4-0.3,0.9-0.3,1.5c0,2,1.6,3.6,3.6,3.6c2,0,3.6-1.6,3.6-3.6S16.4,9.7,14.4,9.7z M3.6,16
	c-1.5,0-2.7-1.2-2.7-2.7s1.2-2.7,2.7-2.7c0.2,0,0.4,0,0.6,0.1l-0.7,1.8c-0.4,0.1-0.8,0.4-0.8,0.9c0,0.5,0.4,0.9,0.9,0.9
	c0.3,0,0.6-0.2,0.8-0.4h1.9C6.1,15,4.9,16,3.6,16z M6.3,12.8H4.4c0,0,0,0,0-0.1L5.1,11C5.7,11.4,6.1,12.1,6.3,12.8z M10.9,10.6
	l0.3-0.5c0.2-0.3,0.2-0.6,0.1-0.9c-0.1-0.3-0.3-0.5-0.6-0.6L8.7,7.8l1.2-1L10,7.4c0,0.2,0.2,0.4,0.4,0.6c0.1,0.1,0.3,0.1,0.4,0.1
	c0.1,0,0.2,0,0.3,0l1.8-0.7l0.5,2.5c-0.7,0.2-1.2,0.6-1.7,1.2L10.9,10.6z M13.7,12.4l-1.4-0.8c0.3-0.3,0.7-0.6,1.1-0.8L13.7,12.4z
	 M14.4,16c-1.5,0-2.7-1.2-2.7-2.7c0-0.3,0.1-0.7,0.2-1l1.6,1c0,0,0,0,0,0c0,0.5,0.4,0.9,0.9,0.9c0.5,0,0.9-0.4,0.9-0.9
	c0-0.4-0.2-0.7-0.6-0.8l-0.4-1.9c0,0,0.1,0,0.1,0c1.5,0,2.7,1.2,2.7,2.7S15.9,16,14.4,16z"/>
</svg>
