<?xml version="1.0" encoding="iso-8859-1"?>
<!-- Generator: Adobe Illustrator 19.0.0, SVG Export Plug-In . SVG Version: 6.00 Build 0)  -->
<svg version="1.1" id="Capa_1" xmlns="http://www.w3.org/2000/svg" xmlns:xlink="http://www.w3.org/1999/xlink" x="0px" y="0px"
	 viewBox="0 0 512 512" style="enable-background:new 0 0 512 512;" xml:space="preserve">
<g>
	<g>
		<path d="M256,0C195.956,0,139.472,23.423,96.947,65.962l21.211,21.211C155.014,50.303,203.969,30,256,30
			s100.986,20.303,137.842,57.173l21.211-21.211C372.528,23.423,316.044,0,256,0z"/>
	</g>
</g>
<g>
	<g>
		<path d="M256,120.85c-28.125,0-55.166,10.927-74.18,29.956l21.211,21.211c26.865-26.895,79.072-26.895,105.938,0l21.211-21.211
			C311.166,131.778,284.125,120.85,256,120.85z"/>
	</g>
</g>
<g>
	<g>
		<path d="M256,60c-44.019,0-85.43,17.183-116.616,48.384l21.211,21.211C186.112,104.063,219.994,90,256,90
			s69.888,14.063,95.405,39.595l21.211-21.211C341.43,77.183,300.019,60,256,60z"/>
	</g>
</g>
<g>
	<g>
		<polygon points="356.814,482 336.812,421 175.188,421 155.186,482 121,482 121,512 391,512 391,482 		"/>
	</g>
</g>
<g>
	<g>
		<path d="M407,286c-8.276,0-15,6.724-15,15s6.724,15,15,15s15-6.724,15-15S415.276,286,407,286z"/>
	</g>
</g>
<g>
	<g>
		<path d="M105,286c-8.276,0-15,6.724-15,15s6.724,15,15,15s15-6.724,15-15S113.276,286,105,286z"/>
	</g>
</g>
<g>
	<g>
		<path d="M256,286c-8.276,0-15,6.724-15,15s6.724,15,15,15s15-6.724,15-15S264.276,286,256,286z"/>
	</g>
</g>
<g>
	<g>
		<path d="M422,211H90c-49.706,0-90,40.294-90,90s40.294,90,90,90h332c49.706,0,90-40.294,90-90S471.706,211,422,211z M105,346
			c-24.814,0-45-20.186-45-45c0-24.814,20.186-45,45-45c24.814,0,45,20.186,45,45C150,325.814,129.814,346,105,346z M256,346
			c-24.814,0-45-20.186-45-45c0-24.814,20.186-45,45-45c24.814,0,45,20.186,45,45C301,325.814,280.814,346,256,346z M407,346
			c-24.814,0-45-20.186-45-45c0-24.814,20.186-45,45-45c24.814,0,45,20.186,45,45C452,325.814,431.814,346,407,346z"/>
	</g>
</g>
<g>
</g>
<g>
</g>
<g>
</g>
<g>
</g>
<g>
</g>
<g>
</g>
<g>
</g>
<g>
</g>
<g>
</g>
<g>
</g>
<g>
</g>
<g>
</g>
<g>
</g>
<g>
</g>
<g>
</g>
</svg>
