<svg width="26" height="26" viewBox="0 0 26 26" fill="none" xmlns="http://www.w3.org/2000/svg">
<path d="M13 0.8125C10.5895 0.8125 8.23322 1.52728 6.22899 2.86646C4.22477 4.20564 2.66267 6.10907 1.74022 8.33605C0.817781 10.563 0.576427 13.0135 1.04668 15.3777C1.51694 17.7418 2.67769 19.9134 4.38214 21.6179C6.08659 23.3223 8.2582 24.4831 10.6223 24.9533C12.9865 25.4236 15.437 25.1822 17.664 24.2598C19.8909 23.3373 21.7944 21.7752 23.1335 19.771C24.4727 17.7668 25.1875 15.4105 25.1875 13C25.1839 9.76878 23.8987 6.67093 21.6139 4.38611C19.3291 2.10129 16.2312 0.816098 13 0.8125ZM19.8616 4.09375L14.3491 10.6628L17.2839 2.60031C18.2056 2.98155 19.0724 3.48377 19.8616 4.09375ZM13.4688 1.76172C14.4658 1.80197 15.453 1.97538 16.4041 2.27734L13.4688 10.3417V1.76172ZM12.5313 1.76172V10.3398L9.59594 2.27734C10.547 1.97538 11.5342 1.80197 12.5313 1.76172ZM8.7161 2.59984L11.6509 10.6623L6.13844 4.09375C6.92756 3.48361 7.7944 2.98123 8.7161 2.59984ZM5.41985 4.69516L10.9319 11.2656L3.50547 6.97703C4.04039 6.13547 4.68408 5.36822 5.41985 4.69516ZM3.03485 7.78891L10.4641 12.078L2.01344 10.5873C2.2272 9.61274 2.57073 8.67122 3.03485 7.78797V7.78891ZM1.75001 13C1.75086 12.5017 1.78484 12.0041 1.85172 11.5103L10.3005 13L1.85172 14.4897C1.78484 13.9959 1.75086 13.4983 1.75001 13ZM2.01344 15.4127L10.4641 13.923L3.03485 18.212C2.57073 17.3288 2.2272 16.3873 2.01344 15.4127ZM3.50547 19.022L10.9319 14.7344L5.41985 21.3048C4.68408 20.6318 4.04039 19.8645 3.50547 19.023V19.022ZM6.13844 21.9062L11.6509 15.3372L8.7161 23.3997C7.79442 23.0185 6.92759 22.5162 6.13844 21.9062ZM12.5313 24.2383C11.5342 24.198 10.547 24.0246 9.59594 23.7227L12.5313 15.6583V24.2383ZM12.0625 13C12.0625 12.8146 12.1175 12.6333 12.2205 12.4792C12.3235 12.325 12.4699 12.2048 12.6412 12.1339C12.8125 12.0629 13.001 12.0443 13.1829 12.0805C13.3648 12.1167 13.5318 12.206 13.6629 12.3371C13.794 12.4682 13.8833 12.6352 13.9195 12.8171C13.9557 12.999 13.9371 13.1875 13.8661 13.3588C13.7952 13.5301 13.675 13.6765 13.5209 13.7795C13.3667 13.8825 13.1854 13.9375 13 13.9375C12.7514 13.9375 12.5129 13.8387 12.3371 13.6629C12.1613 13.4871 12.0625 13.2486 12.0625 13ZM13.4688 24.2383V15.6602L16.4041 23.7227C15.453 24.0246 14.4658 24.198 13.4688 24.2383ZM17.2839 23.4002L14.3491 15.3377L19.8616 21.9062C19.0724 22.5164 18.2056 23.0188 17.2839 23.4002ZM20.5802 21.3048L15.0681 14.7344L22.4945 19.022C21.9597 19.8639 21.316 20.6315 20.5802 21.3048ZM22.9652 18.2111L15.5359 13.923L23.9866 15.4127C23.7728 16.3873 23.4293 17.3288 22.9652 18.212V18.2111ZM24.25 13C24.2492 13.4983 24.2152 13.9959 24.1483 14.4897L15.6995 13L24.1483 11.5103C24.2152 12.0041 24.2492 12.5017 24.25 13ZM23.9866 10.5873L15.5359 12.077L22.9652 7.78797C23.4293 8.67122 23.7728 9.61274 23.9866 10.5873ZM15.0681 11.2656L20.5802 4.69516C21.3159 5.36822 21.9596 6.13547 22.4945 6.97703L15.0681 11.2656Z" fill="#000"/>
</svg>
