<svg width="30" height="24" viewBox="0 0 30 24" fill="none" xmlns="http://www.w3.org/2000/svg">
<path d="M2.78125 5.09375C2.64035 5.09375 2.50523 5.14972 2.4056 5.24935C2.30597 5.34898 2.25 5.4841 2.25 5.625V7.3165C2.42014 7.25358 2.59986 7.22051 2.78125 7.21875H4.90625C5.08764 7.22051 5.26736 7.25358 5.4375 7.3165V5.625C5.4375 5.4841 5.38153 5.34898 5.2819 5.24935C5.18227 5.14972 5.04715 5.09375 4.90625 5.09375H2.78125Z" fill="#000"/>
<path d="M20.84 14.6562V14.125C20.84 13.7023 20.6721 13.2969 20.3732 12.998C20.0743 12.6992 19.669 12.5312 19.2463 12.5312H10.75C10.3273 12.5312 9.92193 12.6992 9.62305 12.998C9.32416 13.2969 9.15625 13.7023 9.15625 14.125V14.6562H20.84Z" fill="#000"/>
<path d="M18.304 16.7812L18.5696 15.7188H16.7432L17.0088 16.7812H18.304Z" fill="#000"/>
<path d="M21.375 19.9688H3.84375V23.1562H21.375V19.9688Z" fill="#000"/>
<path d="M0.125172 19.9688C0.126569 20.7213 0.393914 21.4491 0.87997 22.0236C1.36603 22.5982 2.03951 22.9824 2.78142 23.1084V19.4375C2.78142 19.2966 2.83739 19.1615 2.93702 19.0618C3.03665 18.9622 3.17178 18.9062 3.31267 18.9062H21.9064C22.0473 18.9062 22.1824 18.9622 22.2821 19.0618C22.3817 19.1615 22.4377 19.2966 22.4377 19.4375V23.1562H23.5002V17.8438H21.9064C21.7879 17.8437 21.6728 17.8041 21.5795 17.7311C21.4861 17.6581 21.4198 17.556 21.3911 17.4411L20.9603 15.7188H19.6651L19.2342 17.4411C19.2056 17.556 19.1393 17.6581 19.0459 17.7311C18.9525 17.8041 18.8374 17.8437 18.7189 17.8438H16.5939C16.4754 17.8437 16.3603 17.8041 16.267 17.7311C16.1736 17.6581 16.1073 17.556 16.0786 17.4411L15.6478 15.7188H14.3526L13.9217 17.4411C13.8931 17.556 13.8268 17.6581 13.7334 17.7311C13.64 17.8041 13.5249 17.8437 13.4064 17.8438H11.2814C11.1629 17.8437 11.0478 17.8041 10.9545 17.7311C10.8611 17.6581 10.7948 17.556 10.7661 17.4411L10.3353 15.7188H9.04008L8.60923 17.4411C8.58056 17.556 8.51426 17.6581 8.42089 17.7311C8.32751 17.8041 8.21242 17.8437 8.09392 17.8438H5.96892C5.85042 17.8437 5.73533 17.8041 5.64196 17.7311C5.54858 17.6581 5.48229 17.556 5.45361 17.4411L5.02276 15.7188H3.72758L3.29673 17.4411C3.26806 17.556 3.20176 17.6581 3.10839 17.7311C3.01501 17.8041 2.89992 17.8437 2.78142 17.8438C2.65385 17.8437 2.52636 17.8371 2.39945 17.8241C2.3543 17.8193 2.31127 17.8097 2.26664 17.8039C2.18695 17.7927 2.10727 17.7832 2.02811 17.7667C1.97498 17.7561 1.92611 17.7402 1.87458 17.7274C1.80605 17.7099 1.73698 17.695 1.67005 17.6743C1.61692 17.6573 1.5638 17.6344 1.50802 17.6148C1.45223 17.5951 1.38583 17.5728 1.32686 17.5478C1.26789 17.5229 1.22061 17.4947 1.1643 17.4692C1.10798 17.4437 1.0538 17.4161 1.00067 17.389C0.947547 17.3619 0.894422 17.3253 0.841297 17.2934C0.788172 17.2615 0.739297 17.2333 0.690953 17.2004C0.642609 17.1675 0.592141 17.1266 0.543266 17.0899C0.494391 17.0533 0.448172 17.0208 0.403547 16.9837C0.358922 16.9465 0.312703 16.9018 0.267016 16.8599C0.221328 16.8179 0.179891 16.7823 0.138453 16.7409C0.133672 16.7356 0.127828 16.7313 0.123047 16.7265L0.125172 19.9688Z" fill="#000"/>
<path d="M29.875 10.9375H27.75V13.0625H29.875V10.9375Z" fill="#000"/>
<path d="M21.9062 2.96875C21.7877 2.96872 21.6727 2.92906 21.5793 2.8561C21.4859 2.78313 21.4196 2.68104 21.3909 2.56606L20.9601 0.84375H19.6649L19.2341 2.56606C19.2054 2.68104 19.1391 2.78313 19.0457 2.8561C18.9523 2.92906 18.8372 2.96872 18.7187 2.96875H16.5937C16.4752 2.96872 16.3602 2.92906 16.2668 2.8561C16.1734 2.78313 16.1071 2.68104 16.0784 2.56606L15.6476 0.84375H14.3524L13.9216 2.56606C13.8929 2.68104 13.8266 2.78313 13.7332 2.8561C13.6398 2.92906 13.5248 2.96872 13.4062 2.96875H11.2812C11.1627 2.96872 11.0477 2.92906 10.9543 2.8561C10.8609 2.78313 10.7946 2.68104 10.7659 2.56606L10.3351 0.84375H9.03991L8.60906 2.56606C8.58038 2.68104 8.51409 2.78313 8.42071 2.8561C8.32734 2.92906 8.21225 2.96872 8.09375 2.96875H5.96875C5.85025 2.96872 5.73516 2.92906 5.64179 2.8561C5.54841 2.78313 5.48211 2.68104 5.45344 2.56606L5.02259 0.84375H3.72741L3.29656 2.56606C3.26788 2.68104 3.20159 2.78313 3.10821 2.8561C3.01484 2.92906 2.89975 2.96872 2.78125 2.96875C2.07703 2.96959 1.40189 3.24972 0.903929 3.74768C0.405969 4.24564 0.125844 4.92078 0.125 5.625V14.125C0.126168 14.2967 0.14396 14.4678 0.178125 14.6361C0.189281 14.6892 0.209469 14.7423 0.223812 14.7954C0.249969 14.9027 0.282793 15.0083 0.322094 15.1115C0.346531 15.1721 0.378406 15.2289 0.407625 15.2874C0.449596 15.3766 0.496598 15.4633 0.548406 15.5472C0.585594 15.6045 0.627562 15.6582 0.668469 15.7129C0.724713 15.7886 0.784824 15.8613 0.848562 15.9307C0.896375 15.9838 0.946844 16.0295 0.998375 16.0763C1.06744 16.139 1.13862 16.1985 1.21353 16.2542C1.26984 16.2957 1.32775 16.3355 1.38778 16.3727C1.46786 16.4219 1.55049 16.4668 1.63534 16.5071C1.69856 16.5379 1.76125 16.5682 1.82712 16.5937C1.91884 16.6277 2.01229 16.6568 2.10709 16.6808C2.17403 16.6984 2.23937 16.718 2.30791 16.7308C2.33075 16.7345 2.35519 16.734 2.37803 16.7377L2.63728 15.7012C2.24271 15.6663 1.87539 15.4853 1.60723 15.1938C1.33908 14.9022 1.1894 14.5211 1.1875 14.125V5.625C1.1875 5.20231 1.35541 4.79693 1.6543 4.49805C1.95318 4.19916 2.35856 4.03125 2.78125 4.03125H4.90625C5.32894 4.03125 5.73431 4.19916 6.0332 4.49805C6.33209 4.79693 6.5 5.20231 6.5 5.625V14.125C6.49978 14.3398 6.45592 14.5523 6.37108 14.7497C6.28625 14.947 6.1622 15.1251 6.00647 15.273L6.38366 16.7812H7.67884L8.09375 15.1222V14.125C8.09459 13.4208 8.37472 12.7456 8.87268 12.2477C9.37064 11.7497 10.0458 11.4696 10.75 11.4688H19.2463C19.9505 11.4696 20.6256 11.7497 21.1236 12.2477C21.6216 12.7456 21.9017 13.4208 21.9025 14.125V15.1078L22.3212 16.7812H23.5V10.4062H24.5625V14.6562H26.6875V9.34375H24.0312C23.8904 9.34375 23.7552 9.28778 23.6556 9.18815C23.556 9.08852 23.5 8.9534 23.5 8.8125V2.96875H21.9062ZM21.9025 5.625C21.9017 6.32922 21.6216 7.00436 21.1236 7.50232C20.6256 8.00028 19.9505 8.28041 19.2463 8.28125H10.75C10.0458 8.28041 9.37064 8.00028 8.87268 7.50232C8.37472 7.00436 8.09459 6.32922 8.09375 5.625V4.5625C8.09375 4.4216 8.14972 4.28648 8.24935 4.18685C8.34898 4.08722 8.4841 4.03125 8.625 4.03125H21.3713C21.5122 4.03125 21.6473 4.08722 21.7469 4.18685C21.8466 4.28648 21.9025 4.4216 21.9025 4.5625V5.625Z" fill="#000"/>
<path d="M12.9915 16.7812L13.2571 15.7188H11.4307L11.6963 16.7812H12.9915Z" fill="#000"/>
<path d="M9.15625 5.625C9.15625 6.04769 9.32416 6.45307 9.62305 6.75195C9.92193 7.05084 10.3273 7.21875 10.75 7.21875H19.2463C19.669 7.21875 20.0743 7.05084 20.3732 6.75195C20.6721 6.45307 20.84 6.04769 20.84 5.625V5.09375H9.15625V5.625Z" fill="#000"/>
</svg>
