<svg width="30" height="30" viewBox="0 0 30 30" fill="none" xmlns="http://www.w3.org/2000/svg">
<path d="M27.5436 15C27.5436 13.9125 27.8416 13.5192 28.335 12.8678C29.0769 11.8884 30 10.6695 30 7.5C29.9978 5.51156 29.2069 3.6052 27.8008 2.19917C26.3948 0.793127 24.4884 0.00223323 22.5 0C19.3305 0 18.1116 0.923281 17.1322 1.665C16.4809 2.15844 16.0877 2.45641 15 2.45641C13.9123 2.45641 13.5191 2.15844 12.8678 1.665C11.8884 0.923281 10.6695 0 7.5 0C5.51088 0 3.60322 0.790176 2.1967 2.1967C0.790176 3.60322 0 5.51088 0 7.5C0 9.48912 0.790176 11.3968 2.1967 12.8033C3.60322 14.2098 5.51088 15 7.5 15C10.6695 15 11.8884 14.0767 12.8678 13.335C13.5191 12.8416 13.9123 12.5436 15 12.5436C15.9719 12.5436 16.3897 12.782 16.9323 13.1842L16.9116 13.1991C17.2097 13.6166 17.4564 14.0403 17.4564 14.9995C17.4564 15.9311 17.2377 16.3534 16.8645 16.8647C16.3594 17.2344 15.9406 17.4564 15 17.4564C13.9123 17.4564 13.5191 17.1584 12.8678 16.665C11.8884 15.9233 10.6695 15 7.5 15C5.51088 15 3.60322 15.7902 2.1967 17.1967C0.790176 18.6032 0 20.5109 0 22.5C0 24.4891 0.790176 26.3968 2.1967 27.8033C3.60322 29.2098 5.51088 30 7.5 30C10.6695 30 11.8884 29.0767 12.8678 28.335C13.5191 27.8416 13.9123 27.5436 15 27.5436C16.0877 27.5436 16.4809 27.8416 17.1322 28.335C18.1116 29.0767 19.3305 30 22.5 30C24.4884 29.9978 26.3948 29.2069 27.8008 27.8008C29.2069 26.3948 29.9978 24.4884 30 22.5C30 19.3305 29.0769 18.1116 28.335 17.1322C27.8416 16.4808 27.5436 16.0875 27.5436 15ZM11.3581 11.342C10.572 11.9375 9.82953 12.5 7.5 12.5C6.17392 12.5 4.90215 11.9732 3.96447 11.0355C3.02678 10.0979 2.5 8.82608 2.5 7.5C2.5 6.17392 3.02678 4.90215 3.96447 3.96447C4.90215 3.02678 6.17392 2.5 7.5 2.5C9.82953 2.5 10.572 3.0625 11.3581 3.65797C12.1617 4.26656 13.0725 4.95641 15 4.95641C16.9275 4.95641 17.8383 4.26656 18.6419 3.65797C19.428 3.0625 20.1705 2.5 22.5 2.5C23.8261 2.5 25.0979 3.02678 26.0355 3.96447C26.9732 4.90215 27.5 6.17392 27.5 7.5C27.5 8.82608 26.9732 10.0979 26.0355 11.0355C25.0979 11.9732 23.8261 12.5 22.5 12.5C20.1705 12.5 19.428 11.9375 18.6419 11.342C17.8383 10.7334 16.9275 10.0436 15 10.0436C13.0725 10.0436 12.1617 10.7334 11.3581 11.342ZM11.3581 26.342C10.572 26.9375 9.82953 27.5 7.5 27.5C6.17392 27.5 4.90215 26.9732 3.96447 26.0355C3.02678 25.0979 2.5 23.8261 2.5 22.5C2.5 21.1739 3.02678 19.9021 3.96447 18.9645C4.90215 18.0268 6.17392 17.5 7.5 17.5C9.82953 17.5 10.572 18.0625 11.3581 18.658C12.1617 19.2666 13.0725 19.9564 15 19.9564C15.0891 19.9564 15.1745 19.9537 15.2595 19.9509C15.0752 20.7878 14.9881 21.6432 15 22.5C14.9993 23.3726 15.1515 24.2386 15.4498 25.0586C15.3056 25.0498 15.1573 25.043 15 25.043C13.0725 25.0436 12.1617 25.7334 11.3581 26.342ZM22.5 27.5C21.1744 27.4985 19.9035 26.9712 18.9661 26.0339C18.0288 25.0965 17.5015 23.8256 17.5 22.5C17.5 20.1703 18.0625 19.4278 18.6578 18.6417C19.2672 17.8383 19.9564 16.9275 19.9564 15C19.9564 14.9111 19.9544 14.8253 19.9514 14.7406C20.7881 14.9249 21.6433 15.0119 22.5 15C23.3726 15.0007 24.2386 14.8485 25.0586 14.5502C25.0498 14.6944 25.043 14.8427 25.043 15C25.043 16.9275 25.7328 17.8383 26.3416 18.6417C26.9375 19.4278 27.5 20.1703 27.5 22.5C27.4985 23.8256 26.9712 25.0965 26.0339 26.0339C25.0965 26.9712 23.8256 27.4985 22.5 27.5Z" fill="#000"/>
</svg>
