<svg width="13" height="30" viewBox="0 0 13 30" fill="none" xmlns="http://www.w3.org/2000/svg">
<path d="M10.0717 28.875L10.3455 29.0119C10.4006 29.0394 10.4605 29.0558 10.522 29.0602C10.5834 29.0645 10.6451 29.0567 10.7035 29.0372C10.7619 29.0177 10.8159 28.9869 10.8624 28.9465C10.9089 28.9061 10.947 28.857 10.9745 28.8019L11.1695 28.4114C11.7835 27.2288 12.1209 25.9222 12.1563 24.5902V13.4569C12.1603 12.25 11.8261 11.0661 11.1916 10.0394C10.5572 9.01275 9.6478 8.18435 8.56656 7.64813C8.51457 7.62234 8.46103 7.5998 8.40625 7.58063V1.40625C8.40625 1.28193 8.35687 1.1627 8.26896 1.07479C8.18105 0.986886 8.06182 0.9375 7.9375 0.9375H6.0625C5.93818 0.9375 5.81895 0.986886 5.73105 1.07479C5.64314 1.1627 5.59375 1.28193 5.59375 1.40625V7.58063C5.53898 7.59981 5.48544 7.62236 5.43344 7.64813C4.35221 8.18435 3.44282 9.01275 2.80835 10.0394C2.17389 11.0661 1.83973 12.25 1.84375 13.4569V23.8125C1.84117 25.0292 1.44668 26.2126 0.718752 27.1875C0.64416 27.287 0.612132 27.412 0.629713 27.535C0.647295 27.6581 0.713045 27.7692 0.812501 27.8438L1.09375 28.0547C1.16468 28.1079 1.24923 28.1398 1.33759 28.1469C1.42596 28.1539 1.51451 28.1358 1.59297 28.0945L1.84375 27.9633V28.3828C1.84375 28.4556 1.8607 28.5274 1.89324 28.5924C1.92578 28.6575 1.97303 28.7141 2.03125 28.7578L2.3125 28.9683C2.41196 29.0429 2.53697 29.0749 2.66004 29.0573C2.78311 29.0397 2.89416 28.974 2.96875 28.8745C4.06068 27.4124 4.65242 25.6374 4.65625 23.8125V13.4569C4.65134 12.8243 4.81171 12.2015 5.12151 11.65C5.4313 11.0985 5.87976 10.6374 6.4225 10.3125H7.5775C8.12024 10.6374 8.56871 11.0985 8.8785 11.65C9.18829 12.2015 9.34867 12.8243 9.34375 13.4569V24.5902C9.30922 25.4861 9.07339 26.3628 8.65375 27.1552L8.45828 27.5456C8.40281 27.6568 8.39376 27.7855 8.43314 27.9034C8.47252 28.0213 8.5571 28.1187 8.66828 28.1742L9.13422 28.4086C9.21683 28.4501 9.30986 28.4662 9.4016 28.4549C9.49335 28.4437 9.57971 28.4055 9.64985 28.3453L9.81438 28.2047V28.4573C9.81451 28.5439 9.83863 28.6288 9.88405 28.7025C9.92948 28.7762 9.99444 28.8359 10.0717 28.875ZM6.53125 1.875H7.46875V6.09375H6.53125V1.875ZM9.74078 27.0328C10.078 26.2615 10.2615 25.4318 10.2813 24.5902V13.4569C10.2811 12.6389 10.0638 11.8355 9.65153 11.129C9.23925 10.4225 8.64679 9.83805 7.93469 9.43547C7.86403 9.39562 7.78425 9.37478 7.70313 9.375H6.29688C6.21623 9.37502 6.13696 9.39585 6.06672 9.43547C5.35436 9.83787 4.76161 10.4222 4.34909 11.1288C3.93656 11.8353 3.71903 12.6387 3.71875 13.4569V23.8125C3.7162 25.0816 3.39377 26.3296 2.78125 27.4411V27.1875C2.78123 27.1068 2.76038 27.0275 2.72072 26.9572C2.68106 26.887 2.62394 26.8281 2.55488 26.7864C2.48582 26.7447 2.40716 26.7215 2.32651 26.7191C2.24587 26.7167 2.16596 26.7351 2.09453 26.7727L2.06688 26.7872C2.53448 25.8652 2.77916 24.8463 2.78125 23.8125V13.4569C2.77803 12.4245 3.06403 11.4118 3.60685 10.5336C4.14967 9.65544 4.9276 8.94684 5.8525 8.48812C5.91774 8.4555 5.98956 8.43818 6.0625 8.4375C6.18682 8.4375 6.30605 8.38811 6.39396 8.30021C6.48187 8.2123 6.53125 8.09307 6.53125 7.96875V7.03125H7.46875V7.96875C7.46875 8.09307 7.51814 8.2123 7.60605 8.30021C7.69395 8.38811 7.81318 8.4375 7.9375 8.4375C8.01033 8.43775 8.08215 8.45458 8.1475 8.48672C9.07259 8.94558 9.85063 9.65441 10.3935 10.5329C10.9363 11.4113 11.2222 12.4242 11.2188 13.4569V24.5902C11.2028 25.4373 11.0387 26.275 10.7341 27.0656C10.7135 26.9893 10.6739 26.9193 10.619 26.8624C10.5641 26.8054 10.4957 26.7633 10.4201 26.7399C10.3446 26.7165 10.2643 26.7126 10.1868 26.7286C10.1094 26.7446 10.0372 26.7799 9.97703 26.8313L9.74078 27.0328Z" fill="#000"/>
</svg>
